<?xml version="1.0" standalone="no"?> <!DOCTYPE svg PUBLIC "-//W3C//DTD SVG 1.0//EN" "http://www.w3.org/TR/2001/REC-SVG-20010904/DTD/svg10.dtd" > <svg xmlns="http://www.w3.org/2000/svg" width="100%" height="100%">
<defs >
<font id="knockout-htf28-juniorfeatherwt" horiz-adv-x="257" ><font-face
    font-family="Knockout HTF28-JuniorFeatherwt"
    units-per-em="1000"
    panose-1="0 0 0 0 0 0 0 0 0 0"
    ascent="829"
    descent="-210"
    alphabetic="0" />
<missing-glyph horiz-adv-x="500" />
<glyph unicode=" " glyph-name="space" horiz-adv-x="139" />
<glyph unicode="!" glyph-name="exclam" horiz-adv-x="165" d="M122 377L94 176H71L43 377V666H122V377ZM118 0H46V104H118V0Z" />
<glyph unicode="&quot;" glyph-name="quotedbl" horiz-adv-x="217" d="M222 666L159 473H114L156 666H222ZM116 666L65 473H20L50 666H116Z" />
<glyph unicode="#" glyph-name="numbersign" horiz-adv-x="468" d="M463 430H353L323 236H438V188H315L287 0H235L263 188H160L132 0H80L108 188H5V236H116L145 430H30V478H153L181 666H233L206 478H309L337 666H389L361 478H463V430ZM301 430H197L168 236H271L301 430Z" />
<glyph unicode="$" glyph-name="dollar" horiz-adv-x="366" d="M149 673V751H219V676Q272 667 303 627T334 528V466H258V520Q258 560 241 583T189 607Q158 607 141 588T123 535Q123 505 136 476T161 431T207 374Q249 332 270 307T312 237T333 145Q333 81 302 41T219
-9V-86H149V-9Q96 1 65 41T34 138V199H112V145Q112 57 184 57Q218 57 237 79T256 137Q256 181 233 218T163 306Q45 420 45 519Q45 579 71 620T149 673Z" />
<glyph unicode="%" glyph-name="percent" horiz-adv-x="487" d="M197 432Q197 389 174 364T112 338Q75 338 52 363T28 432V585Q28 628 51 653T112 678T173 653T197 585V432ZM449 661L75 -21L43 4L416 685L449 661ZM463 80Q463 37 440 12T379 -14T318 11T294 80V233Q294
276 318 301T379 327T439 302T463 233V80ZM143 417V600Q143 613 134 621T112 630T91 622T82 600V417Q82 404 90 396T112 387Q126 387 134 395T143 417ZM409 65V248Q409 261 401 269T379 278T357 270T348 248V65Q348 52 357 44T379 35T400 43T409 65Z" />
<glyph unicode="&amp;" glyph-name="ampersand" horiz-adv-x="471" d="M464 88Q464 39 442 14T378 -12Q329 -12 285 37Q238 -12 168 -12Q104 -12 65 33T26 149Q26 213 54 263T139 360Q110 442 110 517Q110 588 144 633T237 678Q292 678 319 639T347 537Q347 431
224 336Q257 206 288 151Q313 195 328 247T344 341H410Q409 285 387 213T330 90Q352 58 381 58Q408 58 408 91V152H464V88ZM276 534Q276 603 236 603Q184 603 184 518Q184 482 202 399Q240 430 258 466T276 534ZM242 86Q199 151 161 287Q105 231 105 161Q105 111
126 86T186 60Q219 60 242 86Z" />
<glyph unicode="&apos;" glyph-name="quotesingle" horiz-adv-x="155" d="M149 666L81 473H34L72 666H149Z" />
<glyph unicode="(" glyph-name="parenleft" horiz-adv-x="273" d="M271 -126L250 -148Q76 7 76 304T250 757L271 735Q151 589 151 304Q151 20 271 -126Z" />
<glyph unicode=")" glyph-name="parenright" horiz-adv-x="273" d="M197 304Q197 8 23 -148L2 -126Q121 21 121 304Q121 588 2 735L23 757Q197 599 197 304Z" />
<glyph unicode="*" glyph-name="asterisk" horiz-adv-x="267" d="M243 500L228 475Q224 468 212 473Q175 496 149 520Q158 483 158 442Q158 429 149 429H119Q110 429 110 442Q110 480 119 520Q83 488 56 473Q46 467 40 474L26 500Q21 507 32 514Q65 533 104 545Q73
555 31 577Q21 583 25 591L39 617Q45 624 55 618Q90 597 118 572Q109 616 109 650Q109 662 118 662H149Q158 662 158 650Q158 611 149 572Q179 599 212 619Q222 625 228 617L243 592Q247 584 236 578Q204 558 164 546Q206 533 236 515Q247 509 243 500Z" />
<glyph unicode="+" glyph-name="plus" horiz-adv-x="307" d="M272 306H186V211H122V306H35V369H122V464H186V369H272V306Z" />
<glyph unicode="," glyph-name="comma" horiz-adv-x="155" d="M113 11Q113 -85 30 -85V-60Q74 -60 74 0H42V106H113V11Z" />
<glyph unicode="-" glyph-name="hyphen" horiz-adv-x="223" d="M201 277H22V345H201V277Z" />
<glyph unicode="." glyph-name="period" horiz-adv-x="155" d="M113 0H42V106H113V0Z" />
<glyph unicode="/" glyph-name="slash" horiz-adv-x="234" d="M239 729L49 -64H-6L185 729H239Z" />
<glyph unicode="0" glyph-name="zero" horiz-adv-x="379" d="M339 140Q339 72 298 30T190 -12Q122 -12 81 30T40 140V526Q40 594 81 636T190 678Q257 678 298 636T339 526V140ZM261 128V538Q261 566 241 585T190 605Q158 605 138 586T118 538V128Q118 100 138
81T190 61T241 80T261 128Z" />
<glyph unicode="1" glyph-name="one" horiz-adv-x="196" d="M137 0H58V627Q97 627 97 666H137V0Z" />
<glyph unicode="2" glyph-name="two" horiz-adv-x="329" d="M310 521Q310 401 189 274Q104 154 104 76H304V0H21V30Q21 96 45 158T143 326Q195 391 216 435T237 530Q237 608 169 608T101 533V455H32V531Q32 593 67 635T168 678Q241 678 275 636T310 521Z" />
<glyph unicode="3" glyph-name="three" horiz-adv-x="337" d="M307 127Q307 65 270 27T167 -12Q100 -12 66 26T31 125V198H100V131Q100 59 164 59Q230 59 230 127V259Q230 306 177 306H129V370H177Q230 370 230 417V537Q230 607 164 607Q100 607 100 534V468H31V540Q31
602 65 640T167 678Q232 678 269 640T307 539V431Q307 397 290 373T241 340Q307 320 307 253V127Z" />
<glyph unicode="4" glyph-name="four" horiz-adv-x="326" d="M316 144H267V0H196V144H9V204L201 666H267V214H316V144ZM196 214V480L88 214H196Z" />
<glyph unicode="5" glyph-name="five" horiz-adv-x="340" d="M315 666Q313 621 299 606T249 591H120L109 392Q139 439 211 439Q258 439 285 409T313 329V130Q313 65 275 27T169 -12Q105 -12 70 27T35 125V191H104V132Q104 99 121 79T169 59Q236 59 236 132V319Q236
347 222 362T182 378Q124 378 105 311L37 323L53 666H315Z" />
<glyph unicode="6" glyph-name="six" horiz-adv-x="360" d="M330 136Q330 69 291 29T184 -12Q117 -12 78 28T39 136V525Q39 594 78 636T186 678Q250 678 286 638T323 540V477H254V534Q254 607 183 607Q115 607 115 530V357Q154 405 221 405Q272 405 301 373T330
291V136ZM253 124V280Q253 344 186 344Q153 344 134 326T115 280V129Q115 98 134 79T184 59Q216 59 234 77T253 124Z" />
<glyph unicode="7" glyph-name="seven" horiz-adv-x="316" d="M310 616Q224 405 188 275T148 0H63Q75 254 228 591H20V666H310V616Z" />
<glyph unicode="8" glyph-name="eight" horiz-adv-x="361" d="M325 127Q325 64 287 26T181 -12T75 26T36 127V238Q36 308 94 337Q38 365 38 436V539Q38 602 76 640T181 678T285 640T323 539V436Q323 365 268 337Q293 324 309 298T325 238V127ZM250 428V537Q250
569 231 588T181 607T131 589T112 537V428Q112 401 129 382T181 362T232 381T250 428ZM251 129V244Q251 270 233 289T181 309T129 290T110 244V129Q110 97 130 78T181 59T231 78T251 129Z" />
<glyph unicode="9" glyph-name="nine" horiz-adv-x="367" d="M328 137Q328 69 289 29T181 -12Q115 -12 77 26T39 122V184H108V130Q108 96 128 78T183 59Q251 59 251 132V301Q214 253 150 253Q98 253 68 286T38 370V530Q38 596 76 637T182 678Q251 678 289 638T328
528V137ZM251 380V537Q251 567 233 587T182 607T131 589T113 542V380Q113 352 130 334T182 316Q214 316 232 334T251 380Z" />
<glyph unicode=":" glyph-name="colon" horiz-adv-x="155" d="M113 323H42V430H113V323ZM113 0H42V106H113V0Z" />
<glyph unicode=";" glyph-name="semicolon" horiz-adv-x="155" d="M113 323H42V430H113V323ZM113 11Q113 -85 30 -85V-60Q74 -60 74 0H42V106H113V11Z" />
<glyph unicode="&lt;" glyph-name="less" horiz-adv-x="423" d="M352 125L51 322V345L352 541V460L156 334L352 206V125Z" />
<glyph unicode="=" glyph-name="equal" horiz-adv-x="289" d="M264 372H25V442H264V372ZM264 233H25V303H264V233Z" />
<glyph unicode="&gt;" glyph-name="greater" horiz-adv-x="423" d="M372 322L71 126V206L267 333L71 461V541L372 344V322Z" />
<glyph unicode="?" glyph-name="question" horiz-adv-x="307" d="M292 524Q292 422 208 315Q182 283 173 256T163 189H103Q103 240 118 278T182 398Q215 458 215 524Q215 569 200 588T152 607Q88 607 88 528V454H19V533Q19 599 52 638T150 678Q224 678 258 636T292
524ZM168 0H96V104H168V0Z" />
<glyph unicode="@" glyph-name="at" horiz-adv-x="530" d="M509 325Q509 246 471 190T367 134Q337 134 318 153T300 203Q268 142 219 142Q186 142 166 167T146 238Q146 303 185 360T277 417Q324 417 330 371L343 413H400L351 242Q342 211 349 193T380 174Q417
174 441 216T465 327Q465 421 412 478T275 536Q186 536 127 462T68 278Q68 166 126 97T275 28Q360 28 414 82L438 52Q374 -12 275 -12Q167 -12 96 67T25 278Q25 406 97 491T275 577Q322 577 361 562T427 521T473 463T500 395T509 325ZM318 332Q316 378 286 378Q252
378 228 334T204 242Q204 217 214 203T241 188Q277 188 298 258L318 332Z" />
<glyph unicode="A" glyph-name="A" horiz-adv-x="353" d="M345 0H260L233 153H115L87 0H8L133 666H221L345 0ZM220 227L175 512L128 227H220Z" />
<glyph unicode="B" glyph-name="B" horiz-adv-x="377" d="M344 134Q344 0 211 0H45V666H208Q340 666 340 532V449Q340 360 269 341Q344 323 344 232V134ZM258 436V535Q258 591 208 591H129V371H199Q258 371 258 436ZM261 130V239Q261 304 202 304H129V75H211Q261
75 261 130Z" />
<glyph unicode="C" glyph-name="C" horiz-adv-x="374" d="M346 142Q346 74 307 31T194 -12T79 33T38 148V518Q38 587 79 632T194 678T307 635T346 524V433H272V526Q272 561 253 581T197 602T141 582T121 529V137Q121 104 141 84T197 64T252 84T272 140V234H346V142Z" />
<glyph unicode="D" glyph-name="D" horiz-adv-x="392" d="M354 163Q354 86 317 43T204 0H45V666H204Q280 666 317 623T354 503V163ZM271 162V503Q271 588 200 588H129V78H200Q271 78 271 162Z" />
<glyph unicode="E" glyph-name="E" horiz-adv-x="331" d="M306 0H45V666H306V590H128V383H257V310H128V76H306V0Z" />
<glyph unicode="F" glyph-name="F" horiz-adv-x="317" d="M302 591H129V373H263V300H129V0H45V666H302V591Z" />
<glyph unicode="G" glyph-name="G" horiz-adv-x="383" d="M349 0H310L292 45Q264 -12 182 -12Q115 -12 77 31T38 147V519Q38 588 79 633T195 678T306 635T344 519V454H266V530Q266 561 248 581T195 602T141 581T121 529V137Q121 105 140 84T195 62T250 83T269
137V265H198V336H349V0Z" />
<glyph unicode="H" glyph-name="H" horiz-adv-x="408" d="M363 0H280V295H129V0H45V666H129V370H280V666H363V0Z" />
<glyph unicode="I" glyph-name="I" horiz-adv-x="174" d="M129 0H45V666H129V0Z" />
<glyph unicode="J" glyph-name="J" horiz-adv-x="356" d="M313 145Q313 72 277 30T170 -12Q100 -12 62 27T24 138V265H103V138Q103 64 168 64Q230 64 230 138V666H313V145Z" />
<glyph unicode="K" glyph-name="K" horiz-adv-x="373" d="M362 0H273L173 296L128 195V0H45V666H128V330L275 666H361L226 379L362 0Z" />
<glyph unicode="L" glyph-name="L" horiz-adv-x="315" d="M301 0H45V666H128V77H301V0Z" />
<glyph unicode="M" glyph-name="M" horiz-adv-x="517" d="M471 0H395V511L373 390L297 0H217L141 390L119 511V0H45V666H163L238 252L260 131L281 253L355 666H471V0Z" />
<glyph unicode="N" glyph-name="N" horiz-adv-x="410" d="M366 0H306L167 331L123 443V0H44V666H115L246 330L287 217V666H366V0Z" />
<glyph unicode="O" glyph-name="O" horiz-adv-x="390" d="M352 152Q352 79 311 34T195 -12T79 33T38 152V514Q38 587 79 632T195 678T310 633T352 514V152ZM269 143V523Q269 558 250 580T195 602T140 580T121 523V143Q121 107 140 86T195 64T250 85T269 143Z" />
<glyph unicode="P" glyph-name="P" horiz-adv-x="363" d="M341 411Q341 344 307 310T207 275H128V0H45V666H207Q272 666 306 632T341 529V411ZM257 406V533Q257 591 208 591H128V347H208Q257 347 257 406Z" />
<glyph unicode="Q" glyph-name="Q" horiz-adv-x="390" d="M384 0Q368 -12 338 -12Q306 -12 281 9Q244 -12 195 -12Q121 -12 80 33T38 147V519Q38 588 79 633T195 678Q268 678 309 633T351 519V138Q351 96 332 64Q348 49 384 49V0ZM268 145V529Q268 559 249 580T195
602T141 581T121 529V137Q121 106 140 85T195 64Q220 64 237 75L212 98L268 145Z" />
<glyph unicode="R" glyph-name="R" horiz-adv-x="382" d="M367 -6H345Q298 -6 280 11T261 74V226Q261 292 204 292H129V0H45V666H208Q341 666 341 532V431Q341 342 270 325Q307 317 325 289T344 221V79Q344 53 367 53V-6ZM258 424V535Q258 591 207 591H129V359H199Q227
359 242 376T258 424Z" />
<glyph unicode="S" glyph-name="S" horiz-adv-x="361" d="M335 150Q335 73 291 31T180 -12Q110 -12 68 29T25 137V198H107V146Q107 104 126 81T180 58Q216 58 234 78T253 135Q253 181 232 219T160 303Q32 416 32 521Q32 590 71 634T183 678Q250 678 290 637T331
528V466H252V519Q252 605 181 605Q148 605 131 587T114 537Q114 489 136 454T218 363Q278 309 306 259T335 150Z" />
<glyph unicode="T" glyph-name="T" horiz-adv-x="331" d="M319 589H208V0H125V589H12V666H319V589Z" />
<glyph unicode="U" glyph-name="U" horiz-adv-x="397" d="M354 141Q354 70 311 29T198 -12Q129 -12 86 29T43 141V666H126V139Q126 63 199 63T272 139V666H354V141Z" />
<glyph unicode="V" glyph-name="V" horiz-adv-x="361" d="M353 666L221 0H139L11 666H98L182 154L270 666H353Z" />
<glyph unicode="W" glyph-name="W" horiz-adv-x="524" d="M515 666L410 0H330L262 445L187 0H107L11 666H95L151 181L231 666H303L374 181L435 666H515Z" />
<glyph unicode="X" glyph-name="X" horiz-adv-x="364" d="M355 0H267L181 257L94 0H10L137 335L18 666H105L185 413L267 666H351L230 344L355 0Z" />
<glyph unicode="Y" glyph-name="Y" horiz-adv-x="345" d="M347 666L213 265V0H130V265L-1 666H85L175 357L265 666H347Z" />
<glyph unicode="Z" glyph-name="Z" horiz-adv-x="341" d="M322 626L118 76H313V0H18V40L224 588H29V666H322V626Z" />
<glyph unicode="[" glyph-name="bracketleft" horiz-adv-x="245" d="M254 -133H83V741H254V681H150V-73H254V-133Z" />
<glyph unicode="\" glyph-name="backslash" horiz-adv-x="233" d="M237 -64H183L-8 729H47L237 -64Z" />
<glyph unicode="]" glyph-name="bracketright" horiz-adv-x="245" d="M162 -133H-10V-73H95V681H-10V741H162V-133Z" />
<glyph unicode="^" glyph-name="asciicircum" horiz-adv-x="239" d="M231 558Q213 552 192 552Q165 552 145 570T118 621Q103 552 43 552Q27 552 9 558V581Q36 581 57 602T90 666H150Q161 624 182 603T231 581V558Z" />
<glyph unicode="_" glyph-name="underscore" horiz-adv-x="298" d="M298 -68H0V0H298V-68Z" />
<glyph unicode="`" glyph-name="grave" horiz-adv-x="155" d="M133 529H86L18 657H95L133 529Z" />
<glyph unicode="a" glyph-name="a" horiz-adv-x="312" d="M289 -8H269Q220 -8 214 42Q180 -8 123 -8Q77 -8 51 23T25 107V124Q25 187 72 223T199 283V354Q199 407 152 407Q125 407 116 394T106 351V316H39V355Q39 408 68 441T153 474Q212 474 240 440T268 345V71Q268
47 289 47V-8ZM199 121V224Q147 212 120 188T93 130V108Q93 55 137 55Q161 55 180 74T199 121Z" />
<glyph unicode="b" glyph-name="b" horiz-adv-x="324" d="M290 110Q290 55 263 23T192 -9Q124 -9 102 56L92 0H40V666H112V414Q139 474 201 474Q244 474 267 442T290 357V110ZM219 121V341Q219 408 167 408Q141 408 127 391T112 344V118Q112 88 127 71T166 54Q219
54 219 121Z" />
<glyph unicode="c" glyph-name="c" horiz-adv-x="300" d="M273 129Q273 64 243 28T156 -8Q100 -8 67 29T34 130V335Q34 398 67 436T156 474Q213 474 243 438T273 337V301H210V349Q210 375 197 391T158 408T119 392T105 346V120Q105 59 158 59Q183 59 196 74T210
117V163H273V129Z" />
<glyph unicode="d" glyph-name="d" horiz-adv-x="324" d="M284 0H228L222 56Q199 -9 133 -9Q88 -9 61 23T34 110V352Q34 408 60 441T128 474Q181 474 212 425V666H284V0ZM212 118V346Q212 375 198 392T158 410Q105 410 105 343V121Q105 54 158 54Q181 54 196 71T212 118Z" />
<glyph unicode="e" glyph-name="e" horiz-adv-x="303" d="M273 129Q273 65 243 29T157 -8Q101 -8 68 29T34 130V335Q34 398 67 436T157 474Q212 474 242 437T273 335V226H105V119Q105 58 158 58Q209 58 209 119V164H273V129ZM209 273V346Q209 408 158 408Q105
408 105 346V273H209Z" />
<glyph unicode="f" glyph-name="f" horiz-adv-x="195" d="M186 401H133V0H60V401H15V465H60V523Q60 666 169 666H194V602H176Q129 602 129 545V465H186V401Z" />
<glyph unicode="g" glyph-name="g" horiz-adv-x="311" d="M308 481Q308 457 296 444T265 431Q248 431 238 437Q276 400 276 347V284Q276 228 243 192T157 156Q146 156 126 160Q113 160 103 149T93 124Q93 86 171 86Q233 86 264 60T296 -16V-49Q296 -106 260 -140T160
-175Q100 -175 63 -145T25 -64V-35Q25 20 85 39Q60 46 46 65T31 106Q31 130 48 150T92 174Q37 199 37 288V346Q37 401 71 437T157 474Q173 474 188 470T207 466Q253 466 253 518H305Q308 501 308 481ZM210 277V352Q210 378 196 395T157 412Q132 412 118 395T103
352V277Q103 251 117 235T157 218Q181 218 195 235T210 277ZM230 -57V-22Q230 25 161 25Q126 25 109 12T91 -24V-59Q91 -81 109 -95T161 -110T212 -95T230 -57Z" />
<glyph unicode="h" glyph-name="h" horiz-adv-x="330" d="M292 0H219V355Q219 380 206 395T172 411Q146 411 130 384T113 331V0H40V666H113V401Q125 436 149 454T203 473Q244 473 268 443T292 361V0Z" />
<glyph unicode="i" glyph-name="i" horiz-adv-x="153" d="M110 537H43V619H110V537ZM113 0H40V468H113V0Z" />
<glyph unicode="j" glyph-name="j" horiz-adv-x="153" d="M110 537H43V619H110V537ZM113 -39Q113 -104 89 -136T10 -169H-13V-109H-4Q40 -109 40 -65V468H113V-39Z" />
<glyph unicode="k" glyph-name="k" horiz-adv-x="309" d="M300 0H225L156 205L113 124V0H40V666H113V229L219 469H292L201 268L300 0Z" />
<glyph unicode="l" glyph-name="l" horiz-adv-x="153" d="M113 0H40V666H113V0Z" />
<glyph unicode="m" glyph-name="m" horiz-adv-x="466" d="M428 0H356V357Q356 409 319 409Q295 409 283 383T271 328V0H198V359Q198 411 162 411Q137 411 125 385T113 330V0H40V468H103L107 400Q135 473 195 473Q249 473 265 409Q291 473 350 473Q387 473 407
446T428 369V0Z" />
<glyph unicode="n" glyph-name="n" horiz-adv-x="331" d="M292 0H219V355Q219 381 207 396T172 411Q146 411 130 384T113 331V0H40V468H102L107 391Q135 473 198 473Q243 473 267 443T292 361V0Z" />
<glyph unicode="o" glyph-name="o" horiz-adv-x="316" d="M281 130Q281 67 248 30T158 -8T68 29T34 130V335Q34 398 68 436T158 474T247 436T281 335V130ZM210 117V349Q210 375 197 391T158 408T120 392T106 349V117Q106 90 119 75T158 59T196 74T210 117Z" />
<glyph unicode="p" glyph-name="p" horiz-adv-x="324" d="M289 107Q289 57 264 26T201 -6Q144 -6 112 43V-166H40V468H96L102 412Q126 477 192 477Q236 477 262 445T289 358V107ZM218 127V347Q218 414 166 414Q144 414 128 397T112 350V124Q112 94 126 77T166
59Q218 59 218 127Z" />
<glyph unicode="q" glyph-name="q" horiz-adv-x="324" d="M284 -169H212V51Q184 -9 120 -9Q83 -9 59 22T34 104V355Q34 409 61 441T133 473Q200 473 222 409L232 465H284V-169ZM212 121V347Q212 377 197 394T158 411Q105 411 105 344V124Q105 56 158 56Q183 56
197 73T212 121Z" />
<glyph unicode="r" glyph-name="r" horiz-adv-x="225" d="M215 394Q113 403 113 337V0H40V468H103L108 398Q136 482 215 471V394Z" />
<glyph unicode="s" glyph-name="s" horiz-adv-x="289" d="M265 114Q265 62 233 27T146 -8Q87 -8 57 26T26 120V147H87V116Q87 54 144 54Q198 54 198 106Q198 138 185 159T130 210Q31 268 31 354Q31 407 63 440T147 474Q261 474 261 352V325H202V358Q202 408 148
408Q124 408 111 396T98 362Q98 334 114 313T176 262Q265 208 265 114Z" />
<glyph unicode="t" glyph-name="t" horiz-adv-x="198" d="M184 401H131V139Q131 51 150 0H78Q58 48 58 139V401H13V465H63V544L131 569V465H184V401Z" />
<glyph unicode="u" glyph-name="u" horiz-adv-x="332" d="M291 0H229L224 66Q198 -9 133 -9Q88 -9 64 21T39 105V468H112V110Q112 85 125 70T159 54Q185 54 201 81T218 134V468H291V0Z" />
<glyph unicode="v" glyph-name="v" horiz-adv-x="284" d="M274 468L177 0H106L9 468H79L126 205L142 100L158 205L203 468H274Z" />
<glyph unicode="w" glyph-name="w" horiz-adv-x="422" d="M412 468L327 0H262L226 196L211 299L195 196L159 0H93L9 468H79L114 211L128 105L142 211L183 468H243L280 211L295 105L308 211L347 468H412Z" />
<glyph unicode="x" glyph-name="x" horiz-adv-x="279" d="M273 0H199L139 165L79 0H7L105 233L7 468H80L141 302L201 468H273L175 233L273 0Z" />
<glyph unicode="y" glyph-name="y" horiz-adv-x="284" d="M273 468L168 -39Q154 -108 131 -138T55 -169H32V-107H50Q74 -107 84 -98T99 -65L108 -9L9 468H80L125 207L140 103L157 207L202 468H273Z" />
<glyph unicode="z" glyph-name="z" horiz-adv-x="263" d="M245 427L95 63H239V0H17V41L169 405H25V468H245V427Z" />
<glyph unicode="{" glyph-name="braceleft" horiz-adv-x="274" d="M236 -133H206Q141 -133 107 -95T72 3Q72 46 90 94T126 179T144 235Q144 258 131 269T86 281H55V327H86Q118 327 131 338T144 373Q144 391 108 470T72 605Q72 664 106 702T206 741H236V688H203Q172
688 156 666T140 608Q140 568 171 493T202 394Q202 323 126 304Q202 287 202 214Q202 190 171 116T140 1Q140 -35 156 -57T203 -79H236V-133Z" />
<glyph unicode="|" glyph-name="bar" horiz-adv-x="144" d="M98 -64H45V729H98V-64Z" />
<glyph unicode="}" glyph-name="braceright" horiz-adv-x="274" d="M219 281H187Q129 281 129 235Q129 217 147 180T184 94T202 3Q202 -56 167 -94T67 -133H38V-79H70Q101 -79 117 -57T134 1Q134 41 103 115T71 214Q71 287 148 304Q71 323 71 394Q71 418 102 493T134
608Q134 643 118 665T70 688H38V741H67Q132 741 167 703T202 605Q202 549 166 470T129 373Q129 327 187 327H219V281Z" />
<glyph unicode="~" glyph-name="asciitilde" horiz-adv-x="241" d="M232 348Q232 282 174 282Q152 282 115 305T70 328Q54 328 54 310V281H20Q9 298 9 316Q9 383 67 383Q90 383 127 360T171 337Q188 337 188 355V384H221Q232 369 232 348Z" />
</font>
</defs>
</svg>
