<?xml version="1.0" standalone="no"?> <!DOCTYPE svg PUBLIC "-//W3C//DTD SVG 1.0//EN" "http://www.w3.org/TR/2001/REC-SVG-20010904/DTD/svg10.dtd" > <svg xmlns="http://www.w3.org/2000/svg" width="100%" height="100%">
<defs >
<font id="sentinel-book" horiz-adv-x="420" ><font-face
    font-family="Sentinel Book"
    units-per-em="1000"
    panose-1="0 0 0 0 0 0 0 0 0 0"
    ascent="800"
    descent="-200"
    alphabetic="0" />
<missing-glyph horiz-adv-x="500" d="M0 -200V800H500V-200H0ZM71 750L250 360L429 750H71ZM50 -76L222 300L50 676V-76ZM450 676L278 300L450 -76V676ZM250 240L71 -150H429L250 240Z" />
<glyph unicode=" " glyph-name="space" horiz-adv-x="178" />
<glyph unicode="!" glyph-name="exclam" horiz-adv-x="266" d="M82 678T133 678T184 617Q184 592 171 447Q156 310 150 186H117Q113 269 96 447Q82 581 82 617Q82 678 133 678ZM157 -15T133 -15T93 1T76 41Q76 65 92 81T133 98T173 82T190 41Q190 18 174 2Z" />
<glyph unicode="&quot;" glyph-name="quotedbl" horiz-adv-x="378" d="M241 412L214 424L239 521Q260 608 269 630Q282 656 305 656Q323 656 336 646T350 619Q350 603 343 589Q319 541 291 495L241 412ZM85 412L58 424L83 521Q104 608 113 630Q126 656 149 656Q167
656 180 646T194 619Q194 608 187 589Q163 541 135 495L85 412Z" />
<glyph unicode="#" glyph-name="numbersign" horiz-adv-x="663" d="M209 414H71V464H219L257 657H316L278 464H443L482 657H541L502 464H632V414H493L453 211H591V160H443L404 -40H344L384 160H219L180 -40H120L159 160H31V211H169L209 414ZM433 414H268L229 211H393L433
414Z" />
<glyph unicode="$" glyph-name="dollar" horiz-adv-x="534" d="M297 -79H250V0Q161 5 103 44T45 132Q45 158 61 177T104 196Q129 196 144 180T160 140Q160 106 128 87Q163 50 250 43V284Q153 314 110 349T66 454Q66 519 115 568T250 627V697H297V628Q375 625 428
588T481 504Q481 476 467 460T429 443Q404 443 389 457T374 494Q374 528 405 543Q371 581 297 585V355Q399 324 441 286T484 180Q484 113 436 60T297 0V-79ZM415 155Q415 196 389 222T297 270V44Q352 49 383 80T415 155ZM138 477Q138 437 162 413T250 369V584Q196
577 167 546T138 477Z" />
<glyph unicode="%" glyph-name="percent" horiz-adv-x="779" d="M165 266Q108 266 75 302T42 399Q42 485 100 552T235 620Q296 620 325 575Q364 555 416 555Q512 555 579 634H629L201 -26H135L527 552L524 555Q471 513 402 513Q368 513 343 521Q343 518 343 511T344
501Q344 451 325 399T262 306T165 266ZM559 -14Q502 -14 469 22T435 119Q435 205 493 272T628 340Q678 340 707 309T737 220Q737 171 718 119T656 26T559 -14ZM567 28Q618 28 655 90T692 220Q692 256 677 275T633 294Q582 293 545 232T507 107Q507 69 523 49T567
28ZM174 309Q225 309 262 370T299 500Q299 518 294 535Q268 548 239 574Q205 573 176 543T130 470T114 387Q114 350 130 330T174 309Z" />
<glyph unicode="&amp;" glyph-name="ampersand" horiz-adv-x="719" d="M480 377H692V328H615Q565 213 493 126Q522 79 540 62T581 45Q600 45 614 59T644 107L680 91Q642 -16 557 -16Q519 -16 491 4T433 73Q349 -16 242 -16Q153 -16 103 32T52 147Q52 210 92 256T217
337Q152 405 152 473Q152 538 199 581T314 624Q379 624 418 588T457 501T426 413T325 339Q410 257 465 165Q523 236 559 328H480V377ZM265 43Q339 43 408 112Q352 209 249 308Q192 281 165 247T138 163T173 79T265 43ZM224 495Q224 435 296 366Q386 418 386 494Q386
531 366 555T309 580Q270 580 247 556T224 495Z" />
<glyph unicode="&apos;" glyph-name="quotesingle" horiz-adv-x="224" d="M85 412L58 424L83 521Q104 608 113 630Q126 656 149 656Q167 656 180 646T194 619Q194 608 187 589Q163 541 135 495L85 412Z" />
<glyph unicode="(" glyph-name="parenleft" horiz-adv-x="361" d="M342 -157Q216 -92 143 17T70 284Q70 440 143 549T342 724L366 687Q152 554 152 284Q152 13 366 -120L342 -157Z" />
<glyph unicode=")" glyph-name="parenright" horiz-adv-x="361" d="M19 724Q145 659 218 550T291 283Q291 127 218 18T19 -157L-5 -120Q209 13 209 283Q209 554 -5 687L19 724Z" />
<glyph unicode="*" glyph-name="asterisk" horiz-adv-x="408" d="M214 393Q210 404 209 423T206 471T205 507L192 511Q186 504 170 483T140 446T118 423Q87 400 66 427Q45 456 77 478Q89 486 134 504T184 524V536Q91 570 77 580Q44 602 65 631Q85 660 118 635Q126
629 139 614T170 576T192 548L204 552Q204 555 206 603T213 666Q226 704 259 693Q290 684 278 645Q274 632 247 591T219 548L226 537Q319 564 338 564Q377 564 377 530T337 496Q324 496 276 509T226 522L219 512Q223 506 239 482T265 441T278 414Q291 376 259 366Q227
355 214 393Z" />
<glyph unicode="+" glyph-name="plus" horiz-adv-x="524" d="M236 67V253H54V302H236V488H289V302H470V253H289V67H236Z" />
<glyph unicode="," glyph-name="comma" horiz-adv-x="214" d="M32 -141L17 -110Q112 -65 123 -3L119 -1Q108 -7 96 -7Q77 -7 64 7T51 42Q51 65 66 81T105 98Q134 98 151 78T168 24Q168 -80 32 -141Z" />
<glyph unicode="-" glyph-name="hyphen" horiz-adv-x="366" d="M55 210V275H311V210H55Z" />
<glyph unicode="." glyph-name="period" horiz-adv-x="214" d="M131 -15T107 -15T67 1T50 41Q50 65 66 81T107 98T147 82T164 41Q164 18 148 2Z" />
<glyph unicode="/" glyph-name="slash" horiz-adv-x="418" d="M-48 -203L338 698H399L13 -203H-48Z" />
<glyph unicode="0" glyph-name="zero" horiz-adv-x="558" d="M279 -16Q169 -16 107 76T44 312T108 549T278 643Q388 643 451 551T514 316T450 79T279 -16ZM281 33Q423 33 423 313Q423 445 386 519T276 594Q134 594 134 314Q134 184 171 109T281 33Z" />
<glyph unicode="1" glyph-name="one" horiz-adv-x="448" d="M56 0V52H201V521Q167 505 114 505Q77 505 53 513V555Q112 554 160 575T230 635H283V52H423V0H56Z" />
<glyph unicode="2" glyph-name="two" horiz-adv-x="545" d="M48 55Q48 158 244 279Q326 329 359 368T393 467Q393 523 358 559T264 595Q218 595 184 575T134 525Q181 512 181 466Q181 441 165 424T123 406Q96 406 78 426T60 479Q60 542 122 592T275 643Q372 643
426 591T480 463Q480 396 434 347T290 247Q141 172 115 95L117 92Q156 114 203 114Q240 114 294 88T370 61Q406 61 426 92T465 200L504 197Q484 -16 360 -16Q332 -16 304 -3T256 26T212 55T167 69Q152 69 142 65Q151 51 151 34Q151 13 139 -1T105 -16Q78 -16 63
4T48 55Z" />
<glyph unicode="3" glyph-name="three" horiz-adv-x="523" d="M246 -16Q158 -16 98 24T38 122Q38 150 56 169T101 189Q126 189 141 173T157 133Q157 98 125 76Q165 32 244 32Q310 32 347 69T385 164Q385 228 342 263T208 299H179V348H203Q373 348 373 481Q373
533 340 564T250 595Q168 595 129 545Q170 529 170 489Q170 466 155 449T115 431Q89 431 72 449T54 498Q54 555 112 599T258 643Q351 643 406 598T461 484Q461 425 417 384T293 326V324Q379 314 426 274T473 172Q473 93 411 39T246 -16Z" />
<glyph unicode="4" glyph-name="four" horiz-adv-x="554" d="M322 233V549H319L91 233H322ZM401 51H499V0H222V51H321V180H27V234L323 638H401V233H532V180H401V51Z" />
<glyph unicode="5" glyph-name="five" horiz-adv-x="514" d="M153 550L140 355Q195 399 276 399Q367 399 419 345T472 208Q472 118 413 51T246 -16Q166 -16 106 27T45 130Q45 160 63 181T108 202Q134 202 148 186T163 147Q163 127 152 111T122 87Q161 32 243 32Q310
32 348 77T386 200Q386 274 353 312T259 350Q184 350 123 291L82 303L104 628L117 638Q210 601 296 601Q377 601 444 637L457 609Q396 523 287 523Q219 523 153 550Z" />
<glyph unicode="6" glyph-name="six" horiz-adv-x="532" d="M133 301Q196 395 296 395Q384 395 434 341T485 203Q485 112 429 48T272 -16Q168 -16 108 66T48 279Q48 441 122 542T320 643Q391 643 432 610T474 530Q474 499 457 479T413 459Q387 459 372 474T357
513Q357 531 368 546T397 569Q373 595 320 595Q233 595 184 520T133 301ZM139 191Q139 126 177 80T275 33Q336 33 367 77T399 198Q399 260 367 302T275 345Q216 345 178 302T139 191Z" />
<glyph unicode="7" glyph-name="seven" horiz-adv-x="521" d="M267 45Q263 -16 217 -16Q196 -16 183 -3T170 37Q169 116 222 235T364 450Q417 508 440 539L436 543Q382 512 336 512Q297 512 250 534T181 556Q146 556 127 523T99 399H50V629H102L106 548H110Q125
593 147 613T206 634Q232 634 256 622T295 594T331 566T373 553Q397 553 418 563Q404 580 404 597Q404 617 418 630T452 644Q475 644 489 629T503 591Q503 563 486 536T421 454Q348 369 312 276T267 45Z" />
<glyph unicode="8" glyph-name="eight" horiz-adv-x="532" d="M65 465Q65 539 122 591T272 643Q360 643 413 597T467 485Q467 378 352 333Q487 282 487 176Q487 95 423 40T261 -16Q165 -16 106 33T47 153Q47 264 171 313Q65 361 65 465ZM223 294Q222 294 220 294T217
295Q122 257 122 162Q122 106 162 69T270 31Q331 31 370 67T410 153Q410 203 369 233T223 294ZM143 484Q143 433 180 402T304 348Q398 390 398 479Q398 528 363 561T268 595Q210 595 177 563T143 484Z" />
<glyph unicode="9" glyph-name="nine" horiz-adv-x="532" d="M399 318Q336 225 236 225Q148 225 98 279T47 419Q47 513 103 578T260 643Q364 643 424 562T484 349Q484 184 412 84T216 -16Q138 -16 94 18T50 103Q50 133 67 152T111 172Q136 172 151 157T167 119Q167
78 127 62Q159 32 215 32Q301 32 349 105T399 318ZM393 433Q393 500 355 547T257 594Q196 594 165 549T133 425Q133 360 164 317T257 274Q316 274 354 318T393 433Z" />
<glyph unicode=":" glyph-name="colon" horiz-adv-x="218" d="M133 284T109 284T69 300T52 340Q52 364 68 380T109 397T149 381T166 340Q166 317 150 301ZM133 -15T109 -15T69 1T52 41Q52 65 68 81T109 98T149 82T166 41Q166 18 150 2Z" />
<glyph unicode=";" glyph-name="semicolon" horiz-adv-x="218" d="M111 284Q87 284 71 300T54 340Q54 364 70 380T111 397Q134 397 151 381T168 340Q168 317 151 301T111 284ZM32 -141L17 -110Q112 -65 123 -3L119 -1Q108 -7 96 -7Q77 -7 64 7T51 42Q51 65 66
81T105 98Q134 98 151 78T168 24Q168 -80 32 -141Z" />
<glyph unicode="&lt;" glyph-name="less" horiz-adv-x="516" d="M437 72L80 256V300L437 483V429L137 278L437 128V72Z" />
<glyph unicode="=" glyph-name="equal" horiz-adv-x="526" d="M57 344V393H468V344H57ZM57 163V211H468V163H57Z" />
<glyph unicode="&gt;" glyph-name="greater" horiz-adv-x="516" d="M79 483L436 299V255L79 72V126L379 277L79 427V483Z" />
<glyph unicode="?" glyph-name="question" horiz-adv-x="430" d="M176 192Q177 293 239 369Q264 400 282 421T310 468T321 524Q321 571 291 602T211 634Q172 634 143 617T101 574Q121 569 133 553T146 516Q146 491 130 474T88 456Q61 456 43 475T25 524Q25 585
79 631T212 678Q304 678 355 632T407 517Q407 468 382 429T296 338Q230 282 220 192H176ZM225 -15T201 -15T161 1T144 41Q144 65 160 81T201 98T241 82T258 41Q258 18 242 2Z" />
<glyph unicode="@" glyph-name="at" horiz-adv-x="907" d="M459 -146Q285 -146 173 -43T60 243Q60 430 184 554T489 678Q639 678 743 583T847 333Q847 207 781 134T625 60Q570 60 543 88T523 169L518 170Q456 71 378 71Q327 71 294 107T260 209Q260 266 284 320T348
412Q412 473 483 473Q518 473 544 452T576 391L600 468H665L589 223Q571 173 576 146T596 110T637 101Q702 101 751 165T801 330Q801 468 712 553T484 639Q321 639 214 524T106 242Q106 83 203 -11T463 -106Q607 -106 724 -21L744 -52Q621 -146 459 -146ZM397 120Q457
120 504 197T551 344Q551 381 535 407T484 433Q443 433 407 395T352 305T333 202Q333 163 349 142T397 120Z" />
<glyph unicode="A" glyph-name="A" horiz-adv-x="672" d="M503 52L438 235H196L127 52H215V0H-4V52H66L304 657H374L596 52H680V0H400V52H503ZM320 559L214 282H421L323 559H320Z" />
<glyph unicode="B" glyph-name="B" horiz-adv-x="628" d="M32 0V52H143V601H32V652H321Q563 652 563 495Q563 447 525 404T399 345V342Q494 335 544 292T594 185Q594 0 322 0H32ZM227 367H326Q473 367 473 493Q473 547 441 574T330 601H227V367ZM227 52H327Q421
52 462 85T503 191Q503 250 458 284T323 319H227V52Z" />
<glyph unicode="C" glyph-name="C" horiz-adv-x="675" d="M349 -16Q215 -16 131 80T47 327Q47 471 135 569T351 668Q469 668 538 589L557 665H609V418H563Q497 613 352 613Q258 613 201 540T143 333Q143 194 202 118T363 41Q448 41 503 99T572 255H628Q614 126
540 55T349 -16Z" />
<glyph unicode="D" glyph-name="D" horiz-adv-x="704" d="M32 0V52H143V601H32V652H302Q477 652 568 567T659 336Q659 187 571 94T308 0H32ZM227 52H310Q442 52 502 120T563 336Q563 468 500 534T303 601H227V52Z" />
<glyph unicode="E" glyph-name="E" horiz-adv-x="657" d="M32 0V52H143V601H32V652H590V448H551Q530 548 514 574T452 601H227V358H326Q371 358 384 374T408 458H449V209H408Q398 279 385 296T326 313H227V52H450Q503 52 520 81T560 224H599V0H32Z" />
<glyph unicode="F" glyph-name="F" horiz-adv-x="634" d="M32 0V52H143V601H32V652H591V444H552Q530 545 510 573T443 601H227V346H319Q363 346 376 363T400 448H441V193H400Q392 263 378 282T319 301H227V52H349V0H32Z" />
<glyph unicode="G" glyph-name="G" horiz-adv-x="711" d="M532 87Q471 -16 347 -16Q212 -16 130 82T47 328Q47 468 133 568T347 668Q462 668 531 589L550 665H602V421H556Q491 613 351 613Q254 613 199 540T143 334Q143 197 200 120T358 42Q439 42 485 103Q525
152 525 243V269H403V321H699V269H610V-7H561L532 87Z" />
<glyph unicode="H" glyph-name="H" horiz-adv-x="772" d="M32 0V52H143V601H32V652H325V601H227V361H544V601H447V652H740V601H629V52H740V0H447V52H544V314H227V52H325V0H32Z" />
<glyph unicode="I" glyph-name="I" horiz-adv-x="384" d="M39 0V52H149V601H39V652H345V601H234V52H345V0H39Z" />
<glyph unicode="J" glyph-name="J" horiz-adv-x="530" d="M218 -16Q134 -16 82 27T30 134Q30 168 49 190T98 212Q125 212 142 194T160 148Q160 102 113 88Q141 36 216 36Q269 36 298 70T327 166V601H220V652H511V601H411V181Q411 89 359 37T218 -16Z" />
<glyph unicode="K" glyph-name="K" horiz-adv-x="717" d="M227 229V52H325V0H32V52H143V601H32V652H325V601H227V296L525 601H435V652H686V601H602L381 382L627 52H707V0H433V52H523L324 325L227 229Z" />
<glyph unicode="L" glyph-name="L" horiz-adv-x="606" d="M32 652H344V601H227V52H424Q467 52 484 85T530 245H569V0H32V52H143V601H32V652Z" />
<glyph unicode="M" glyph-name="M" horiz-adv-x="929" d="M34 0V52H138V601H34V652H278L463 143H466L655 652H894V601H786V52H894V0H613V52H701V597H695L466 -1H430L202 597H196V52H290V0H34Z" />
<glyph unicode="N" glyph-name="N" horiz-adv-x="767" d="M589 -16L201 546H196V52H296V0H34V52H138V601H34V652H230L580 146H585V601H484V652H743V601H644V-16H589Z" />
<glyph unicode="O" glyph-name="O" horiz-adv-x="711" d="M356 -16Q225 -16 136 80T47 326Q47 471 137 569T356 667Q487 667 575 572T664 326Q664 180 574 82T356 -16ZM356 37Q455 37 512 114T569 326Q569 459 512 536T356 614Q256 614 200 537T143 326T199 115T356 37Z" />
<glyph unicode="P" glyph-name="P" horiz-adv-x="609" d="M32 0V52H143V601H32V652H316Q455 652 516 600T577 466Q577 382 513 326T320 270H227V52H349V0H32ZM227 319H318Q483 319 483 466Q483 601 319 601H227V319Z" />
<glyph unicode="Q" glyph-name="Q" horiz-adv-x="711" d="M356 -16Q225 -16 136 80T47 326Q47 471 137 569T356 667Q487 667 575 572T664 326Q664 239 630 167T537 48Q566 -1 586 -19T629 -37Q680 -37 695 59H742Q730 -106 618 -106Q570 -106 537 -78T475 10Q418
-16 356 -16ZM212 102Q212 158 246 196T343 235Q393 235 430 202T505 106Q569 186 569 326Q569 459 512 536T356 614Q256 614 200 537T143 326Q143 180 212 102ZM363 37Q412 37 453 60Q425 120 397 151T330 183Q296 183 276 162T256 108Q256 37 363 37Z" />
<glyph unicode="R" glyph-name="R" horiz-adv-x="677" d="M227 293V52H337V0H32V52H143V601H32V652H351Q472 652 530 605T589 483Q589 426 551 382T432 323V317Q499 301 528 268T562 175L568 93Q572 47 603 47Q628 47 650 94L684 78Q650 -11 579 -11Q479 -11 476
106L474 185Q472 244 447 268T351 293H227ZM227 341H345Q493 341 493 482Q493 601 358 601H227V341Z" />
<glyph unicode="S" glyph-name="S" horiz-adv-x="572" d="M55 -13V214H100Q147 117 198 75T322 32Q381 32 416 63T452 152Q452 178 443 198T420 231T381 255T334 274T274 291Q235 301 211 309T156 333T107 367T77 414T64 481Q64 560 119 613T264 667Q313 667 357
648T431 595L451 664H500V449H455Q386 620 259 620Q208 620 175 590T142 506Q142 479 152 459T174 426T214 401T259 384T314 369Q350 360 370 354T419 337T465 313T498 282T522 239T530 183Q530 97 471 41T320 -16Q202 -16 126 65L104 -13H55Z" />
<glyph unicode="T" glyph-name="T" horiz-adv-x="670" d="M178 0V52H293V605H204Q149 605 130 575T84 426H46V652H624V426H586Q559 544 540 574T465 605H377V52H492V0H178Z" />
<glyph unicode="U" glyph-name="U" horiz-adv-x="734" d="M365 -16Q244 -16 181 42T118 197V601H22V652H303V601H202V219Q202 127 249 85T390 43Q470 43 517 90Q563 136 563 243V601H462V652H713V601H621V206Q621 109 555 47T365 -16Z" />
<glyph unicode="V" glyph-name="V" horiz-adv-x="678" d="M307 -4L80 601H-4V652H276V601H173L353 101H359L551 601H463V652H682V601H612L372 -4H307Z" />
<glyph unicode="W" glyph-name="W" horiz-adv-x="984" d="M652 601H547L690 109H695L854 601H766V652H984V601H914L710 -4H639L501 460L342 -4H272L82 601H-3V652H274V601H173L323 109H328L474 544L458 601H374V652H652V601Z" />
<glyph unicode="X" glyph-name="X" horiz-adv-x="672" d="M406 601V652H650V601H569L382 341L576 52H663V0H387V52H477L324 287L158 52H253V0H10V52H91L290 327L106 601H18V652H295V601H206L347 381L500 601H406Z" />
<glyph unicode="Y" glyph-name="Y" horiz-adv-x="637" d="M338 328L499 601H415V652H636V601H559L360 275V52H461V0H175V52H275V274L88 601H6V652H278V601H188L338 328Z" />
<glyph unicode="Z" glyph-name="Z" horiz-adv-x="609" d="M39 0V37L456 601H206Q174 601 159 591T131 547T99 429H59V652H565V616L151 52H421Q452 52 467 64T495 111T527 231H566V0H39Z" />
<glyph unicode="[" glyph-name="bracketleft" horiz-adv-x="338" d="M89 -152V720H338V671H167V-103H338V-152H89Z" />
<glyph unicode="\" glyph-name="backslash" horiz-adv-x="418" d="M405 -203L19 698H80L466 -203H405Z" />
<glyph unicode="]" glyph-name="bracketright" horiz-adv-x="338" d="M249 720V-152H0V-103H171V671H0V720H249Z" />
<glyph unicode="^" glyph-name="asciicircum" horiz-adv-x="333" d="M30 512L148 709H188L302 512H262L166 628L69 512H30Z" />
<glyph unicode="_" glyph-name="underscore" horiz-adv-x="440" d="M-2 0V54H442V0H-2Z" />
<glyph unicode="`" glyph-name="grave" horiz-adv-x="238" d="M170 527H132L67 610Q24 665 24 686Q24 702 34 712T60 723Q78 723 91 707T120 653L170 527Z" />
<glyph unicode="a" glyph-name="a" horiz-adv-x="483" d="M175 -7Q114 -7 80 25T46 110Q46 158 77 190Q102 215 139 228T248 252Q296 260 307 264T319 281V325Q319 373 296 394T226 415Q172 415 140 389Q167 375 167 343Q167 321 153 307T115 292T77 307T62 346Q62
394 114 425T239 457Q397 457 397 322V87Q397 65 404 56T427 47Q450 47 467 87L497 70Q479 31 458 13T404 -5T350 15T328 78H325Q302 40 262 17T175 -7ZM209 46Q250 46 284 75T319 142V231Q308 227 270 221Q192 209 162 189T131 124Q131 46 209 46Z" />
<glyph unicode="b" glyph-name="b" horiz-adv-x="526" d="M285 44Q337 44 368 92T399 227Q399 312 369 359T287 406Q232 406 194 352T156 214Q156 135 194 90T285 44ZM81 -5V633H6V687H158V353Q184 403 224 430T311 458Q378 458 421 415Q484 353 484 229Q484 107
417 40Q369 -8 301 -8Q252 -8 213 19T151 94L122 -5H81Z" />
<glyph unicode="c" glyph-name="c" horiz-adv-x="472" d="M248 -9Q155 -9 97 54T39 216Q39 323 102 390T266 458Q336 458 386 418T436 331Q436 301 420 282T378 262Q353 262 339 277T324 316Q324 334 334 349T362 370Q331 416 263 416Q201 416 162 365T123 226Q123
140 161 92T267 43Q361 43 399 146H442Q423 71 372 31T248 -9Z" />
<glyph unicode="d" glyph-name="d" horiz-adv-x="535" d="M218 -8Q151 -8 107 36Q42 100 42 219Q42 341 111 410Q159 458 227 458Q322 458 367 371V633H291V687H444V52H516V0H369V98Q317 -8 218 -8ZM243 44Q296 44 333 96T370 232Q370 310 336 358T246 406T159
358T127 224Q127 140 160 92T243 44Z" />
<glyph unicode="e" glyph-name="e" horiz-adv-x="476" d="M439 221H123Q124 135 163 90T267 44Q360 44 395 132H437Q417 63 369 27T250 -9Q153 -9 96 54T39 220T100 390T253 458Q345 458 393 388T439 221ZM248 415Q197 415 164 376T124 264H359Q348 415 248 415Z" />
<glyph unicode="f" glyph-name="f" horiz-adv-x="334" d="M35 0V52H109V398H18V447H109V476Q109 587 162 640T293 693Q348 693 383 669T419 606Q419 582 405 566T369 549Q344 549 330 563T316 601Q316 622 333 639Q317 652 285 652Q235 652 211 614T187 480V447H320V398H187V52H292V0H35Z"
/>
<glyph unicode="g" glyph-name="g" horiz-adv-x="469" d="M404 312Q404 243 356 204T228 165Q217 165 197 166T167 168Q144 168 129 156T114 127Q114 87 193 87H312Q444 87 444 -14Q444 -77 383 -119T218 -161Q129 -161 77 -132T24 -57Q24 -25 50 0T120 33V36Q46
58 46 109Q46 134 70 156T131 186Q52 226 52 309Q52 377 102 417T228 457Q266 457 302 443Q354 532 423 532Q449 532 465 518T481 480Q481 461 469 448T437 434T408 445T397 474Q397 480 398 484Q384 485 366 469T334 428Q404 385 404 312ZM232 203Q275 203 298
231T322 311Q322 358 296 388T225 419Q133 419 133 310Q133 257 159 230T232 203ZM222 -119Q291 -119 333 -96T375 -34Q375 22 304 22H192Q98 22 98 -49Q98 -119 222 -119Z" />
<glyph unicode="h" glyph-name="h" horiz-adv-x="556" d="M22 0V52H97V633H22V687H175V336Q244 457 343 457Q401 457 433 420T465 315V52H540V0H319V52H388V280Q388 347 362 373Q342 394 305 394Q256 394 216 349T175 248V52H243V0H22Z" />
<glyph unicode="i" glyph-name="i" horiz-adv-x="300" d="M154 552Q129 552 113 567T97 608Q97 633 113 649T154 666Q178 666 193 650T209 609T194 568T154 552ZM36 0V52H121V398H36V450H198V52H283V0H36Z" />
<glyph unicode="j" glyph-name="j" horiz-adv-x="281" d="M156 552Q131 552 116 567T100 608Q100 633 115 649T156 666Q180 666 195 650T211 609T196 568T156 552ZM54 -163Q10 -163 -20 -141T-51 -85Q-51 -61 -36 -44T3 -27T40 -41T54 -75Q54 -98 37 -115Q47 -122
63 -122Q123 -122 123 -22V398H39V450H201V18Q201 -70 163 -116T54 -163Z" />
<glyph unicode="k" glyph-name="k" horiz-adv-x="522" d="M422 398L299 273L455 52H512V0H307V51H367L248 224L175 150V52H237V0H22V52H97V633H22V687H175V206L357 399H282V450H490V398H422Z" />
<glyph unicode="l" glyph-name="l" horiz-adv-x="284" d="M18 0V52H103V633H18V687H181V52H265V0H18Z" />
<glyph unicode="m" glyph-name="m" horiz-adv-x="839" d="M466 338Q538 457 632 457Q688 457 718 421T749 314V52H824V0H608V52H672V280Q672 349 647 375Q629 393 593 393Q546 393 507 348T468 248V52H532V0H327V52H390V280Q390 350 366 375Q347 393 312 393Q264
393 226 348T187 248V52H250V0H34V52H109V398H34V450H185V334Q256 457 350 457Q457 457 466 338Z" />
<glyph unicode="n" glyph-name="n" horiz-adv-x="568" d="M34 0V52H109V398H34V450H185V334Q256 457 355 457Q413 457 445 420T477 315V52H552V0H331V52H400V280Q400 347 374 373Q354 394 317 394Q268 394 228 349T187 248V52H255V0H34Z" />
<glyph unicode="o" glyph-name="o" horiz-adv-x="512" d="M256 -9Q160 -9 100 54T39 221Q39 325 101 391T256 458Q352 458 412 395T473 228Q473 124 411 58T256 -9ZM260 35Q318 35 353 83T388 225T350 366T252 414Q194 414 159 366T123 224Q123 131 161 83T260 35Z" />
<glyph unicode="p" glyph-name="p" horiz-adv-x="539" d="M296 53Q349 53 380 100T412 235Q412 322 381 364T300 406Q249 406 211 353T172 221Q172 147 206 100T296 53ZM22 -150V-98H97V398H22V450H172V345Q222 458 326 458Q391 458 436 413Q497 352 497 233Q497
115 430 48Q382 0 316 0Q221 0 174 92V-98H272V-150H22Z" />
<glyph unicode="q" glyph-name="q" horiz-adv-x="522" d="M245 406Q191 406 159 359T127 226Q127 137 159 95T242 53Q294 53 331 104T368 234Q368 309 333 357T245 406ZM367 106Q318 0 217 0Q150 0 103 47Q42 108 42 226Q42 279 60 328T109 408Q159 458 226 458Q275
458 313 431T374 356L403 454H444V-98H519V-150H270V-98H367V106Z" />
<glyph unicode="r" glyph-name="r" horiz-adv-x="405" d="M34 0V52H109V398H34V450H185V344Q206 399 243 427T321 456Q354 456 374 436T394 387Q394 363 379 346T340 329T302 343T286 381Q286 392 290 400Q256 403 227 370T187 295V52H275V0H34Z" />
<glyph unicode="s" glyph-name="s" horiz-adv-x="433" d="M45 -9V161H91Q109 101 148 67T240 32Q281 32 304 51T328 102Q328 135 302 154T206 192Q123 215 88 246T53 328Q53 381 95 419T204 458Q286 458 321 404L332 458H376V304H332Q307 363 279 390T203 417Q170
417 147 400T123 352Q123 321 150 302T241 264Q326 241 361 212T396 128Q396 74 353 33T240 -9Q150 -9 100 54L89 -9H45Z" />
<glyph unicode="t" glyph-name="t" horiz-adv-x="350" d="M98 567L176 577V447H323V398H176V115Q176 45 232 45Q279 45 307 125L343 111Q309 -9 212 -9Q156 -9 127 23T98 113V398H7V447H98V567Z" />
<glyph unicode="u" glyph-name="u" horiz-adv-x="551" d="M212 -8Q155 -8 124 29T92 135V398H18V450H169V170Q169 101 195 76Q212 56 250 56Q299 56 339 101T379 201V398H302V450H457V52H531V0H381V115Q309 -8 212 -8Z" />
<glyph unicode="v" glyph-name="v" horiz-adv-x="494" d="M216 -6L62 398H0V450H225V398H147L260 80H263L384 398H314V450H494V398H440L278 -6H216Z" />
<glyph unicode="w" glyph-name="w" horiz-adv-x="752" d="M503 398H422L530 80H533L642 398H572V450H750V398H696L550 -6H486L384 284L266 -6H203L64 398H2V450H221V398H145L248 80H250L360 354L345 398H283V450H503V398Z" />
<glyph unicode="x" glyph-name="x" horiz-adv-x="487" d="M224 400H155L255 263L365 400H301V450H476V398H425L285 232L422 52H476V0H268V50H336L235 187L123 50H185V0H12V52H65L205 217L66 398H12V450H224V400Z" />
<glyph unicode="y" glyph-name="y" horiz-adv-x="489" d="M70 -33Q93 -33 107 -47T121 -84Q121 -104 112 -118Q143 -116 168 -91T221 1L62 398H0V450H224V398H146L262 89L382 398H313V450H493V398H438L283 18Q242 -83 199 -123T101 -163Q61 -163 38 -144T14 -93Q14
-68 30 -51T70 -33Z" />
<glyph unicode="z" glyph-name="z" horiz-adv-x="457" d="M35 0V43L328 406H169Q131 406 118 387T87 293H50V450H424V407L129 44H312Q349 44 361 65T388 168H426V0H35Z" />
<glyph unicode="{" glyph-name="braceleft" horiz-adv-x="388" d="M16 308H46Q115 308 149 333T183 400Q183 424 176 473T168 544Q168 625 220 671T378 721V675Q304 669 276 639T247 552Q247 538 251 493T255 425Q255 304 119 286V283Q255 265 255 143Q255 120
251 76T247 16Q247 -41 275 -71T378 -107V-153Q273 -149 221 -103T168 24Q168 46 175 95T183 169Q183 211 149 235T46 260H16V308Z" />
<glyph unicode="|" glyph-name="bar" horiz-adv-x="279" d="M112 -203V698H167V-203H112Z" />
<glyph unicode="}" glyph-name="braceright" horiz-adv-x="388" d="M372 260H342Q273 260 239 235T205 168Q205 144 212 95T220 24Q220 -57 168 -103T10 -153V-107Q84 -101 112 -71T141 16Q141 31 137 75T133 143Q133 264 269 282V285Q133 303 133 425Q133 448
137 493T141 552Q141 609 113 639T10 675V721Q115 717 167 671T220 544Q220 522 213 473T205 399Q205 357 239 333T342 308H372V260Z" />
<glyph unicode="~" glyph-name="asciitilde" horiz-adv-x="371" d="M41 251Q50 318 70 345T130 373Q158 373 200 345T256 316Q287 316 298 380H334Q325 313 305 286T245 258Q217 258 175 286T119 315Q88 315 77 251H41Z" />
</font>
</defs>
</svg>
