<?xml version="1.0" standalone="no"?> <!DOCTYPE svg PUBLIC "-//W3C//DTD SVG 1.0//EN" "http://www.w3.org/TR/2001/REC-SVG-20010904/DTD/svg10.dtd" > <svg xmlns="http://www.w3.org/2000/svg" width="100%" height="100%">
<defs >
<font id="sentinel-bookitalic" horiz-adv-x="410" ><font-face
    font-family="Sentinel Book"
    units-per-em="1000"
    panose-1="0 0 0 0 0 0 0 0 0 0"
    ascent="800"
    descent="-200"
    alphabetic="0" />
<missing-glyph horiz-adv-x="500" d="M0 -200V800H500V-200H0ZM71 750L250 360L429 750H71ZM50 -76L222 300L50 676V-76ZM450 676L278 300L450 -76V676ZM250 240L71 -150H429L250 240Z" />
<glyph unicode=" " glyph-name="space" horiz-adv-x="174" />
<glyph unicode="!" glyph-name="exclam" horiz-adv-x="266" d="M108 189Q127 282 150 436T183 627Q196 678 237 678Q260 678 272 666T285 632Q285 612 268 561T217 417Q179 309 140 182L108 189ZM86 -15Q65 -15 51 0T36 40T52 83T92 103Q114 103 128 88T143 48T127
5T86 -15Z" />
<glyph unicode="&quot;" glyph-name="quotedbl" horiz-adv-x="381" d="M132 412L108 425L179 568Q202 616 217 636T251 656Q269 656 282 645T296 617Q296 604 286 588T257 551T214 502L132 412ZM291 412L267 425L338 568Q361 616 376 636T410 656Q428 656 441
645T455 617Q455 604 445 588T416 551T373 502L291 412Z" />
<glyph unicode="#" glyph-name="numbersign" horiz-adv-x="653" d="M96 414L109 464H256L311 661L367 654L314 464H470L525 661L582 654L529 464H662L649 414H515L458 211H604L592 160H444L388 -43L331 -37L386 160H229L173 -43L116 -37L171 160H39L51 211H185L242
414H96ZM300 414L243 211H400L456 414H300Z" />
<glyph unicode="$" glyph-name="dollar" horiz-adv-x="526" d="M363 700L410 691L393 624Q458 611 497 574T537 498Q537 467 520 446T477 424Q455 424 443 437T430 468Q430 488 442 504T471 526Q448 567 383 582L325 349Q398 313 431 278T465 190Q465 114 407
57T249 0H238L217 -85L170 -77L190 5Q119 19 73 57T26 141Q26 172 44 194T91 217Q113 217 127 203T141 168Q141 147 128 130T96 105Q105 88 134 71T201 47L261 287Q187 323 153 356T119 442Q119 519 181 574T338 629H345L363 700ZM392 161Q392 193 371 217T305
265L249 42H253Q315 42 353 76T392 161ZM196 469Q196 439 217 417T281 371L335 587Q271 586 234 550T196 469Z" />
<glyph unicode="%" glyph-name="percent" horiz-adv-x="770" d="M177 267Q120 267 88 300T56 391Q56 478 119 548T259 619Q323 619 350 574Q393 554 449 554Q566 554 665 637L694 611L140 -26L99 4L592 551L589 554Q562 537 519 525T438 512Q398 512 365 520Q365
518 365 515T366 509Q366 430 310 349T177 267ZM553 -14Q496 -14 464 19T432 111Q432 198 495 268T635 339Q684 339 713 311T742 229Q742 150 686 68T553 -14ZM559 29Q609 29 652 94T696 227Q696 293 641 293Q590 293 547 228T503 98Q503 29 559 29ZM184 309Q233
309 276 375T320 508Q320 524 315 539Q286 554 265 574Q214 573 171 508T128 379Q128 309 184 309Z" />
<glyph unicode="&amp;" glyph-name="ampersand" horiz-adv-x="672" d="M593 383Q623 383 639 367T656 325Q656 296 641 275T602 253Q574 253 564 276T568 327Q537 313 500 259T432 153Q456 93 471 69T505 44Q522 44 539 61T581 130L615 114Q585 41 554 14T487
-14Q447 -14 424 8T375 90Q330 38 286 11T187 -16Q114 -16 69 24T24 130Q24 274 235 339Q189 405 189 463Q189 537 239 580T358 624Q418 624 456 590T495 502Q495 392 334 333Q391 246 413 194Q424 211 445 245T479 298T511 339T551 372T593 383ZM207 45Q287 45
356 128Q324 212 257 308Q112 255 112 143Q112 98 138 72T207 45ZM264 485Q264 439 313 363Q426 411 426 502Q426 535 407 557T350 580Q314 580 289 555T264 485Z" />
<glyph unicode="&apos;" glyph-name="quotesingle" horiz-adv-x="224" d="M132 412L108 425L179 568Q202 616 217 636T251 656Q269 656 282 645T296 617Q296 604 286 588T257 551T214 502L132 412Z" />
<glyph unicode="(" glyph-name="parenleft" horiz-adv-x="361" d="M248 -157Q72 -25 72 186Q72 362 175 511T464 724L479 685Q323 620 238 477T152 177Q152 -9 280 -123L248 -157Z" />
<glyph unicode=")" glyph-name="parenright" horiz-adv-x="361" d="M143 724Q319 592 319 381Q319 205 216 56T-73 -157L-88 -118Q68 -53 153 90T239 390Q239 576 111 690L143 724Z" />
<glyph unicode="*" glyph-name="asterisk" horiz-adv-x="408" d="M321 393Q316 407 310 457T304 508L292 510Q288 505 272 481T243 441T222 418Q193 392 170 418Q148 445 179 470Q187 477 204 486T249 507T282 522L281 534Q272 537 246 544T200 557T172 570Q140
594 156 621Q175 652 209 628Q217 622 231 608T263 574T288 547L300 551Q300 563 300 589T299 635T302 666Q312 705 346 696Q378 687 367 649Q365 639 356 622T333 579T315 548L323 538Q329 540 357 550T403 566T433 572Q472 575 475 541Q476 524 467 515T437 504Q423
503 374 513L324 523L317 512Q330 496 354 464T384 418Q398 382 367 369Q336 355 321 393Z" />
<glyph unicode="+" glyph-name="plus" horiz-adv-x="524" d="M198 67L244 253H62L74 302H256L302 488H355L309 302H490L478 253H296L250 67H198Z" />
<glyph unicode="," glyph-name="comma" horiz-adv-x="214" d="M-48 -136L-58 -103Q46 -66 67 -5L64 -2Q57 -7 47 -7Q30 -7 18 4T6 38Q6 62 22 81T64 101Q92 101 107 82T122 34Q122 -16 81 -62T-48 -136Z" />
<glyph unicode="-" glyph-name="hyphen" horiz-adv-x="364" d="M52 210L68 275H322L305 210H52Z" />
<glyph unicode="." glyph-name="period" horiz-adv-x="214" d="M61 -15Q40 -15 26 0T11 40T27 83T67 103Q89 103 103 88T118 48T102 5T61 -15Z" />
<glyph unicode="/" glyph-name="slash" horiz-adv-x="418" d="M-139 -190L463 712L511 688L-91 -214L-139 -190Z" />
<glyph unicode="0" glyph-name="zero" horiz-adv-x="552" d="M243 -16Q156 -16 107 48T57 226Q57 333 95 429T201 584T348 643Q435 643 484 579T533 401Q533 294 495 199T390 44T243 -16ZM347 594Q300 594 260 554T195 452T157 324T143 201Q142 33 244 33Q291
33 331 73T396 176T434 304T448 427Q448 594 347 594Z" />
<glyph unicode="1" glyph-name="one" horiz-adv-x="446" d="M-1 0L11 52H156L273 521Q237 505 181 505Q145 505 121 513L132 555Q191 554 245 575T331 635H383L238 52H379L369 0H-1Z" />
<glyph unicode="2" glyph-name="two" horiz-adv-x="542" d="M199 541Q234 523 234 482Q234 459 219 441T176 421Q149 421 132 439T115 488Q115 547 176 595T329 643Q418 643 471 596T525 476Q525 395 470 346T318 264Q255 242 212 220T146 176T111 136T91 95L93
93Q136 116 178 116Q218 116 268 89T339 61Q374 61 400 92T456 200L492 193Q466 82 424 34T322 -15Q293 -15 267 -2T224 27T186 56T144 70Q126 70 111 64Q118 52 118 38Q118 14 106 0T72 -15Q49 -15 36 3T22 54Q22 123 85 185T259 296Q353 339 398 382T443 485Q443
537 409 565T321 594Q237 594 199 541Z" />
<glyph unicode="3" glyph-name="three" horiz-adv-x="512" d="M97 88Q108 67 139 50T217 33Q285 33 325 78T366 188Q366 238 331 268T220 298H202L214 347H235Q334 347 381 394Q422 434 422 498Q422 545 394 570T313 595Q240 595 207 557Q231 538 231 508Q231
483 216 466T175 448T136 463T121 504Q121 561 182 602T322 643Q410 643 459 601T508 497Q508 427 457 380T315 321V319Q382 305 417 268T452 179Q452 98 388 41T225 -16Q140 -16 81 25T21 129Q21 161 40 183T87 206Q111 206 125 191T140 154Q140 109 97 88Z" />
<glyph unicode="4" glyph-name="four" horiz-adv-x="548" d="M324 233L403 548H400L97 233H324ZM358 51H456L443 0H166L179 51H278L310 180H17L30 234L421 638H505L403 233H532L520 180H390L358 51Z" />
<glyph unicode="5" glyph-name="five" horiz-adv-x="509" d="M222 549L165 363Q217 393 284 393Q365 393 412 350T459 234Q459 138 392 61T211 -16Q134 -16 80 26T25 127Q25 164 45 189T95 215Q119 215 133 200T148 163Q148 138 133 120T92 97Q102 70 133 51T205
32Q285 32 329 94T373 239Q373 295 343 321T263 347Q194 347 136 303L99 320L194 628L209 638Q284 602 371 602Q449 602 522 635L534 610Q461 523 356 523Q287 523 222 549Z" />
<glyph unicode="6" glyph-name="six" horiz-adv-x="521" d="M247 33Q310 33 348 94T386 229Q386 283 357 314T279 345Q218 345 177 293T136 164Q136 106 165 70T247 33ZM526 529Q526 496 507 473T459 449Q434 449 420 463T406 499Q406 544 452 561Q446 576 425
585T376 595Q297 595 241 525T155 323Q215 395 305 395Q380 395 426 348T472 225Q472 167 447 113T369 21T250 -16Q161 -16 109 44T57 211Q57 318 95 416T207 578T374 643Q441 643 483 611T526 529Z" />
<glyph unicode="7" glyph-name="seven" horiz-adv-x="519" d="M215 45Q204 10 193 -4T162 -18Q144 -19 130 -5T116 30Q116 94 209 228T414 454Q486 515 509 540L506 543Q456 513 410 513Q371 513 324 534T257 556Q223 556 197 523T140 401H91L147 629H200L184
551H187Q214 594 239 614T299 634Q337 634 381 594T457 553Q479 553 495 564Q490 576 490 592Q490 614 503 629T538 644T571 631T584 599Q584 569 562 541T479 463Q384 383 322 286T215 45Z" />
<glyph unicode="8" glyph-name="eight" horiz-adv-x="524" d="M516 491Q516 432 478 389T370 323Q469 265 469 178Q469 97 405 41T241 -16Q148 -16 93 31T37 148Q37 206 78 253T203 321Q120 377 120 458Q120 532 178 587T331 643Q414 643 465 600T516 491ZM250
294Q244 296 241 298Q179 282 145 243T111 149Q111 99 147 66T246 32Q310 32 349 67T389 157Q389 199 356 228T250 294ZM199 481Q199 439 232 407T330 344Q388 365 417 404T447 490T416 566T329 596Q272 596 236 563T199 481Z" />
<glyph unicode="9" glyph-name="nine" horiz-adv-x="522" d="M317 594Q252 594 214 534T176 394Q176 338 204 306T282 274Q344 274 385 327T427 459Q427 520 398 557T317 594ZM30 105Q30 137 49 160T97 183Q121 183 135 169T150 133Q150 89 103 70Q129 33 190
33Q348 33 407 296Q346 225 257 225Q181 225 136 273T90 399Q90 493 152 568T313 643Q402 643 454 583T506 416Q506 307 470 210T361 48T195 -16Q119 -16 75 20T30 105Z" />
<glyph unicode=":" glyph-name="colon" horiz-adv-x="218" d="M63 -15Q42 -15 28 0T13 40T29 83T69 103Q91 103 105 88T120 48T104 5T63 -15ZM139 279Q118 279 104 294T89 334T105 377T145 397Q167 397 181 382T196 342T180 299T139 279Z" />
<glyph unicode=";" glyph-name="semicolon" horiz-adv-x="218" d="M-46 -136L-56 -103Q48 -66 69 -5L66 -2Q59 -7 49 -7Q32 -7 20 4T8 38Q8 62 24 81T66 101Q94 101 109 82T124 34Q124 -16 83 -62T-46 -136ZM139 279Q118 279 104 294T89 334T105 377T145 397Q167
397 181 382T196 342T180 299T139 279Z" />
<glyph unicode="&lt;" glyph-name="less" horiz-adv-x="523" d="M394 76L85 259L96 303L488 482L489 431L146 276L411 125L394 76Z" />
<glyph unicode="=" glyph-name="equal" horiz-adv-x="526" d="M87 344L99 393H510L498 344H87ZM42 163L54 211H465L453 163H42Z" />
<glyph unicode="&gt;" glyph-name="greater" horiz-adv-x="523" d="M150 482L459 298L449 255L56 76L54 125L398 279L133 431L150 482Z" />
<glyph unicode="?" glyph-name="question" horiz-adv-x="419" d="M340 254Q288 177 210 177Q166 177 138 202T110 268Q110 311 142 341T244 405Q322 443 354 472T386 548Q386 584 362 609T284 634Q225 634 191 602Q214 582 214 554Q214 528 198 510T157 491Q134
491 119 507T103 549Q103 600 156 639T290 678Q377 678 423 636T470 534Q470 471 428 433T294 353Q230 324 205 307T180 261Q181 243 193 232T224 221Q268 221 312 274L340 254ZM155 -15Q133 -15 119 0T104 40T120 83T161 103Q183 103 197 88T212 48T196 5T155
-15Z" />
<glyph unicode="@" glyph-name="at" horiz-adv-x="896" d="M634 -50L650 -83Q544 -146 413 -146Q255 -146 155 -54T55 196Q55 396 195 537T528 678Q670 678 762 596T855 375Q855 240 787 148T623 56Q570 56 543 86T522 169L517 170Q455 71 378 71Q327 71 294 107T260
209Q260 309 328 391T482 473Q518 473 544 452T576 391L600 468H665L587 219Q549 97 636 97Q701 97 755 175T809 373Q809 495 731 567T524 639Q410 639 312 579T158 416T101 196Q101 59 187 -23T418 -106Q533 -106 634 -50ZM396 120Q437 120 474 159T530 250T550
344Q550 381 535 407T484 433Q422 433 378 357T333 202Q333 163 349 142T396 120Z" />
<glyph unicode="A" glyph-name="A" horiz-adv-x="664" d="M358 52H461L441 235H206L97 52H185L172 0H-54L-41 52H29L403 657H476L546 52H630L618 0H345L358 52ZM234 282H436L407 566H404L234 282Z" />
<glyph unicode="B" glyph-name="B" horiz-adv-x="618" d="M-22 0L-10 52H100L236 601H125L138 652H404Q520 652 570 614T621 515Q621 489 612 463T582 411T518 367T416 343V339Q573 310 573 198Q573 125 525 77Q448 0 257 0H-22ZM263 367H351Q436 367 483 409T531
514Q531 557 502 579T404 601H321L263 367ZM185 52H269Q484 52 484 210Q484 260 445 289T329 319H252L185 52Z" />
<glyph unicode="C" glyph-name="C" horiz-adv-x="659" d="M322 -15Q198 -15 134 59T69 250Q69 416 175 542T431 668Q552 668 609 587L647 665H700L640 421H594Q585 614 428 614Q345 614 282 556T189 416T159 249Q159 150 205 96T333 41Q414 41 469 97T569 251L617
231Q519 -15 322 -15Z" />
<glyph unicode="D" glyph-name="D" horiz-adv-x="690" d="M-22 0L-10 52H100L236 601H126L138 652H386Q532 652 608 584T684 403Q684 327 653 251T564 118Q446 0 233 0H-22ZM184 52H232Q399 52 480 133Q531 184 561 262T591 421Q591 601 379 601H321L184 52Z" />
<glyph unicode="E" glyph-name="E" horiz-adv-x="645" d="M138 652H685L635 448H595Q600 550 590 575T530 601H321L261 358H347Q392 358 409 374T455 458H496L434 209H394Q402 280 394 296T341 313H250L185 52H391Q446 52 471 81T546 224H587L532 0H-22L-10 52H100L236
601H125L138 652Z" />
<glyph unicode="F" glyph-name="F" horiz-adv-x="622" d="M258 346H337Q383 346 401 363T446 448H487L424 193H383Q392 267 384 284T330 301H247L185 52H306L294 0H-22L-10 52H100L236 601H125L138 652H686L633 444H594Q596 517 591 548T572 590T523 601H321L258 346Z" />
<glyph unicode="G" glyph-name="G" horiz-adv-x="697" d="M245 41T318 41T443 96T518 241L525 269H402L416 321H712L699 269H609L539 -7H491L489 85Q414 -16 300 -16Q191 -16 130 60T69 250Q69 359 116 455T248 609T431 668Q552 668 609 587L647 665H700L640 421H594Q585
614 428 614Q345 614 282 556T189 415T159 244Q159 145 202 93Z" />
<glyph unicode="H" glyph-name="H" horiz-adv-x="761" d="M-22 0L-10 52H100L236 601H125L138 652H428L415 601H321L262 361H567L626 601H530L543 652H833L820 601H711L575 52H686L674 0H384L396 52H490L556 314H251L185 52H280L268 0H-22Z" />
<glyph unicode="I" glyph-name="I" horiz-adv-x="384" d="M-15 0L-3 52H107L243 601H132L144 652H450L437 601H328L191 52H303L291 0H-15Z" />
<glyph unicode="J" glyph-name="J" horiz-adv-x="526" d="M502 601L395 171Q373 81 318 33T178 -16Q98 -16 52 25T6 121Q6 160 28 187T86 214Q113 214 128 198T143 157Q143 132 127 114T80 89Q87 65 114 50T178 34Q231 34 262 70T313 181L417 601H310L323 652H613L601
601H502Z" />
<glyph unicode="K" glyph-name="K" horiz-adv-x="704" d="M690 601L413 377L568 52H654L642 0H368L381 52H472L348 325L228 227L185 52H280L268 0H-22L-10 52H100L236 601H125L138 652H428L415 601H321L247 301L607 601H519L532 652H782L770 601H690Z" />
<glyph unicode="L" glyph-name="L" horiz-adv-x="592" d="M138 652H436L424 601H321L185 52H363Q417 52 441 82T515 226H557L500 0H-22L-10 52H100L236 601H125L138 652Z" />
<glyph unicode="M" glyph-name="M" horiz-adv-x="913" d="M-19 0L-7 52H95L232 601H128L140 652H375L429 141H432L742 652H984L971 601H864L728 52H837L825 0H547L559 52H643L779 597H771L401 -1H365L295 597H289L153 52H245L233 0H-19Z" />
<glyph unicode="N" glyph-name="N" horiz-adv-x="751" d="M522 -16L283 552H278L153 52H250L238 0H-19L-7 52H95L231 601H128L140 652H330L547 143H552L665 601H567L580 652H835L822 601H724L570 -16H522Z" />
<glyph unicode="O" glyph-name="O" horiz-adv-x="696" d="M70 263Q70 366 115 458T242 609T421 667Q535 667 606 590T678 389Q678 286 633 193T506 42T327 -16Q213 -16 142 61T70 263ZM417 615Q353 615 302 577T220 481T175 361T159 241Q159 139 205 88T331 37Q395
37 447 74T528 170T573 291T589 410Q589 513 543 564T417 615Z" />
<glyph unicode="P" glyph-name="P" horiz-adv-x="598" d="M239 270L185 52H306L294 0H-22L-10 52H100L236 601H125L138 652H401Q519 652 574 609T629 495Q629 398 552 334T324 270H239ZM251 319H334Q435 319 485 369T535 498Q535 547 503 574T391 601H321L251 319Z" />
<glyph unicode="Q" glyph-name="Q" horiz-adv-x="696" d="M327 -16Q213 -16 142 61T70 263Q70 366 115 458T242 609T421 667Q535 667 606 590T678 389Q678 282 628 186T495 35Q509 -4 523 -21T561 -39Q587 -39 604 -19T645 53L687 38Q637 -106 549 -106Q502 -106
476 -79T431 2Q377 -16 327 -16ZM192 111Q196 165 230 200T321 235Q385 235 419 198T475 96Q529 151 559 240T589 410Q589 513 543 564T417 615Q353 615 302 577T220 481T175 361T159 241Q159 155 192 111ZM337 35Q380 35 416 53Q399 117 376 150T309 183Q278 183
257 162T236 109T263 57T337 35Z" />
<glyph unicode="R" glyph-name="R" horiz-adv-x="667" d="M-22 0L-10 52H100L236 601H125L138 652H432Q546 652 594 611T642 506Q642 435 593 382T443 318L441 313Q498 298 519 272T541 200Q541 181 535 140T529 84Q529 42 571 42Q598 42 633 58L646 26Q592 -11
531 -11Q489 -11 464 10T439 74Q439 97 449 151T459 231Q459 262 438 277T362 293H245L185 52H294L282 0H-22ZM256 341H361Q458 341 504 387Q525 407 537 441T550 511Q550 601 427 601H321L256 341Z" />
<glyph unicode="S" glyph-name="S" horiz-adv-x="561" d="M-4 -13L53 220H97Q132 32 288 32Q349 32 389 68T429 157Q429 201 395 229T287 293Q248 311 225 325T175 360T136 409T123 471Q123 550 185 608T342 667Q397 667 442 646T512 590L552 664H601L546 443H503Q485
542 444 581T336 620Q282 620 244 586T206 500Q206 483 210 469T225 443T245 422T274 402T305 385T342 367Q384 347 408 334T460 298T500 249T513 186Q513 102 446 43T283 -16Q157 -16 90 70L45 -13H-4Z" />
<glyph unicode="T" glyph-name="T" horiz-adv-x="656" d="M115 0L128 52H241L379 605H296Q243 605 217 575T134 426H94L151 652H715L658 426H621Q625 542 613 573T547 605H464L325 52H440L428 0H115Z" />
<glyph unicode="U" glyph-name="U" horiz-adv-x="722" d="M336 -16Q228 -16 170 32T111 156Q111 194 124 249L211 601H115L128 652H406L394 601H296L212 262Q197 203 197 161Q197 104 237 73T350 42Q433 42 484 93Q527 136 549 220L643 601H544L556 652H805L792
601H702L601 196Q579 109 526 56Q456 -16 336 -16Z" />
<glyph unicode="V" glyph-name="V" horiz-adv-x="665" d="M254 601L312 94H315L622 601H534L547 652H772L760 601H690L311 -4H245L169 601H84L97 652H369L357 601H254Z" />
<glyph unicode="W" glyph-name="W" horiz-adv-x="959" d="M568 -4L542 458L278 -4H209L166 601H84L97 652H366L353 601H251L279 101H282L537 548L534 601H451L464 652H734L721 601H616L639 101H642L917 601H829L842 652H1066L1053 601H984L637 -4H568Z" />
<glyph unicode="X" glyph-name="X" horiz-adv-x="656" d="M383 601H291L376 381L579 601H492L504 652H742L729 601H652L402 335L518 52H605L592 0H323L336 52H429L337 286L119 52H205L192 0H-44L-32 52H46L312 333L201 601H114L127 652H396L383 601Z" />
<glyph unicode="Y" glyph-name="Y" horiz-adv-x="638" d="M364 327L585 601H504L516 652H737L725 601H650L374 269L318 52H421L408 0H122L134 52H233L292 282L196 601H115L128 652H391L378 601H287L364 327Z" />
<glyph unicode="Z" glyph-name="Z" horiz-adv-x="586" d="M-17 0L-8 37L525 601H297Q265 601 248 591T209 547T148 429H111L166 652H650L641 616L111 52H359Q403 52 427 81T508 231H545L488 0H-17Z" />
<glyph unicode="[" glyph-name="bracketleft" horiz-adv-x="338" d="M-4 -152L213 720H462L450 671H279L86 -103H257L245 -152H-4Z" />
<glyph unicode="\" glyph-name="backslash" horiz-adv-x="418" d="M352 -198L301 -207L140 694L192 703L352 -198Z" />
<glyph unicode="]" glyph-name="bracketright" horiz-adv-x="338" d="M371 719L154 -153H-95L-83 -104H88L281 670H110L122 719H371Z" />
<glyph unicode="^" glyph-name="asciicircum" horiz-adv-x="333" d="M100 512L265 709H305L373 512H335L271 628L143 512H100Z" />
<glyph unicode="_" glyph-name="underscore" horiz-adv-x="440" d="M-55 0L-42 54H402L389 0H-55Z" />
<glyph unicode="`" glyph-name="grave" horiz-adv-x="238" d="M231 641L249 527H214L174 608Q145 668 145 685Q145 701 155 712T181 723Q204 723 214 704T231 641Z" />
<glyph unicode="a" glyph-name="a" horiz-adv-x="520" d="M465 452L386 162Q371 106 371 80Q371 50 395 50Q429 50 471 161L505 150Q475 62 444 27T374 -9Q344 -9 325 12T305 72Q305 83 307 97L300 100Q236 -9 152 -9Q99 -9 66 32T33 142Q33 213 60 278T131 387Q202
458 274 458Q351 458 367 371L389 452H465ZM180 49Q221 49 261 96T323 204T346 314Q346 354 329 383T277 413Q213 413 163 324T112 148Q112 100 130 75T180 49Z" />
<glyph unicode="b" glyph-name="b" horiz-adv-x="475" d="M299 402Q257 402 216 357T151 250T127 138Q127 38 202 38Q247 38 286 85T344 193T364 306Q364 402 299 402ZM264 687L168 351L175 348Q241 458 323 458Q378 458 411 416T444 304Q444 181 364 86T191 -9Q126
-9 88 29T50 135Q50 188 78 288L174 633H81L95 687H264Z" />
<glyph unicode="c" glyph-name="c" horiz-adv-x="433" d="M287 458Q341 458 377 430T413 359Q413 332 398 311T359 289Q339 289 326 301T313 333Q313 367 346 394Q325 418 285 418Q234 418 193 375T131 275T111 169Q111 106 138 74T208 41Q283 41 342 146L374
127Q302 -9 193 -9Q120 -9 76 41T31 170Q31 278 109 368T287 458Z" />
<glyph unicode="d" glyph-name="d" horiz-adv-x="520" d="M180 49Q221 49 261 97T325 208T348 321Q348 413 277 413Q231 413 192 368T133 263T112 148Q112 100 130 75T180 49ZM471 161L505 150Q475 62 444 27T374 -9Q344 -9 325 12T305 72Q305 83 307 97L300 100Q236
-9 152 -9Q99 -9 66 32T33 142Q33 214 59 278T130 387Q201 458 274 458Q351 458 369 379L438 633H344L358 687H528L386 162Q371 106 371 80Q371 50 395 50Q429 50 471 161Z" />
<glyph unicode="e" glyph-name="e" horiz-adv-x="435" d="M414 366Q414 297 338 249T113 184Q111 174 111 155Q111 96 136 67T205 38Q284 38 353 139L384 119Q300 -9 184 -9Q116 -9 74 36T31 159Q31 272 117 365T303 458Q355 458 384 432T414 366ZM288 418Q232
418 186 358T120 221Q342 251 342 364Q342 388 328 403T288 418Z" />
<glyph unicode="f" glyph-name="f" horiz-adv-x="323" d="M-24 -163Q-57 -163 -74 -147T-92 -108T-78 -69T-41 -52Q-22 -52 -12 -63T-1 -91Q-1 -114 -14 -129Q12 -129 28 -96T68 47L142 398H44L56 442H151Q176 566 230 628T358 692Q405 693 431 671T458 618Q458
589 442 568T402 547Q383 547 372 558T360 591Q360 624 384 645Q374 653 355 653Q306 653 281 611T235 476L227 442H354L342 398H218L150 75Q100 -163 -24 -163Z" />
<glyph unicode="g" glyph-name="g" horiz-adv-x="481" d="M66 -106Q87 -121 133 -121Q191 -121 230 -82Q274 -36 303 92L296 95Q239 21 163 21Q106 21 71 62T36 166T61 290T130 395Q191 458 265 458Q303 458 330 436T368 373L388 452H464L377 89Q347 -41 288 -102T133
-163Q76 -163 33 -143T-11 -77Q-11 -52 4 -32T45 -12Q66 -12 78 -25T90 -57Q90 -87 66 -106ZM193 75Q255 75 302 150T349 314Q349 355 327 384T269 413Q206 413 161 335T116 175Q116 75 193 75Z" />
<glyph unicode="h" glyph-name="h" horiz-adv-x="527" d="M377 -9Q345 -9 325 14T305 79Q305 127 340 221T376 355Q376 396 341 396Q290 396 222 297T100 0H19L187 633H93L107 687H277L155 253L161 250Q210 349 265 403T371 458Q408 458 431 431T454 358Q454 314
417 211T379 75Q379 50 399 50Q432 50 474 161L508 150Q455 -9 377 -9Z" />
<glyph unicode="i" glyph-name="i" horiz-adv-x="318" d="M293 609Q293 584 276 562T230 540Q211 540 198 553T185 588Q185 614 202 636T246 658Q267 658 280 645T293 609ZM240 362Q240 318 198 213T156 76Q156 50 179 50Q213 50 256 161L290 150Q236 -9 156 -9Q122
-9 101 13T81 77Q82 125 125 232T168 379Q168 407 149 407Q127 407 106 379T56 294L22 309Q56 382 90 420T165 458Q199 458 219 433T240 362Z" />
<glyph unicode="j" glyph-name="j" horiz-adv-x="278" d="M293 609Q293 584 275 562T230 540Q211 540 198 553T185 588Q185 614 202 636T246 658Q267 658 280 645T293 609ZM239 371Q239 341 226 289L165 59Q106 -163 -14 -163Q-51 -163 -69 -148T-87 -108Q-87
-85 -73 -69T-36 -52Q-16 -52 -6 -63T4 -91Q4 -113 -9 -131Q17 -131 36 -101T82 31L156 313Q167 355 167 377Q167 407 147 407Q113 407 56 294L22 309Q56 383 90 420T166 458Q198 458 218 434T239 371Z" />
<glyph unicode="k" glyph-name="k" horiz-adv-x="486" d="M328 83Q328 50 350 50Q384 50 424 161L458 150Q406 -9 329 -9Q297 -9 276 15T255 84Q255 100 259 133T264 175Q264 204 247 215T177 227H154L93 0H19L187 633H93L107 687H277L163 261H177Q214 261 238
282T296 358Q326 410 352 434T414 458Q444 458 460 443T476 399T461 352T423 332Q397 332 387 353T389 403Q363 401 324 333Q287 269 244 250Q336 243 336 170Q336 154 332 125T328 83Z" />
<glyph unicode="l" glyph-name="l" horiz-adv-x="268" d="M39 76Q39 109 64 203L181 633H87L101 687H271L129 162Q114 106 114 80Q114 50 137 50Q157 50 175 77T214 161L248 150Q218 61 187 26T116 -9Q79 -9 59 13T39 76Z" />
<glyph unicode="m" glyph-name="m" horiz-adv-x="822" d="M672 -9Q640 -9 620 14T600 79Q600 127 635 221T671 355Q671 396 636 396Q587 396 523 298T404 0H324L368 163Q410 318 410 346Q410 396 372 396Q323 396 260 298T141 0H60L144 315Q158 373 155 390T136
407Q117 407 98 379T50 294L16 309Q48 383 80 419T153 456Q216 456 216 374Q216 325 194 257L201 254Q299 458 402 458Q439 458 460 433T481 366T457 257L464 254Q562 458 666 458Q703 458 726 431T749 358Q749 314 712 211T674 75Q674 50 694 50Q727 50 769 161L803
150Q773 62 741 27T672 -9Z" />
<glyph unicode="n" glyph-name="n" horiz-adv-x="559" d="M410 75Q410 50 431 50Q465 50 505 161L540 150Q510 62 478 27T409 -9Q377 -9 357 14T336 79Q337 127 372 221T407 355Q407 396 372 396Q323 396 260 298T141 0H60L144 315Q158 373 155 390T136 407Q117
407 98 379T50 294L16 309Q48 383 80 419T153 456Q216 456 216 374Q216 325 194 257L201 254Q299 458 402 458Q439 458 462 431T485 358Q485 314 448 211T410 75Z" />
<glyph unicode="o" glyph-name="o" horiz-adv-x="473" d="M274 458Q351 458 395 407T440 273Q440 160 369 76T200 -9Q122 -9 78 42T34 176Q34 289 105 373T274 458ZM361 306Q361 362 338 390T274 418Q226 418 188 372T131 264T112 144Q112 88 135 60T199 32Q247
32 285 78T342 186T361 306Z" />
<glyph unicode="p" glyph-name="p" horiz-adv-x="523" d="M346 402Q284 402 229 309T174 137Q174 97 194 71T253 44Q298 44 335 89T392 195T411 307Q411 402 346 402ZM143 311Q167 398 133 398Q114 398 97 376T50 294L16 309Q50 386 82 421T154 456Q185 456 201
435T217 378Q217 363 215 351L222 348Q288 458 370 458Q424 458 457 416T491 305Q491 185 419 92T260 -1Q223 -1 194 18T154 69L109 -98H209L194 -150H-54L-40 -98H34L143 311Z" />
<glyph unicode="q" glyph-name="q" horiz-adv-x="479" d="M467 452L319 -98H408L394 -150H146L160 -98H244L297 92L290 95Q231 0 153 0Q98 0 66 42T33 154Q33 221 59 282T129 387Q200 458 275 458Q312 458 337 436T370 375L391 452H467ZM178 56Q220 56 260 101T325
208T349 318Q349 361 331 387T277 413Q210 413 161 325T112 153Q112 56 178 56Z" />
<glyph unicode="r" glyph-name="r" horiz-adv-x="423" d="M60 0L144 315Q158 373 155 390T136 407Q117 407 98 379T50 294L16 309Q48 383 80 419T153 456Q216 456 216 374Q216 325 194 257L202 254Q252 359 291 408T372 458Q397 458 413 442T429 400Q429 371 413
350T374 329Q353 329 342 344T332 386Q295 369 240 268T141 0H60Z" />
<glyph unicode="s" glyph-name="s" horiz-adv-x="414" d="M353 137Q353 69 304 30T183 -9Q121 -9 69 20T17 97Q17 122 32 141T71 160Q90 160 102 147T114 115Q114 82 89 63Q119 30 183 30Q227 30 253 52T280 112Q280 139 260 157T185 199Q160 210 146 218T114
240T88 273T79 315Q79 382 129 420T246 458Q308 458 351 432T395 364Q395 339 382 321T345 303Q325 303 313 315T301 346Q301 377 326 395Q317 405 294 412T246 420Q204 420 178 399T152 342Q152 315 172 297T243 256Q298 232 325 207T353 137Z" />
<glyph unicode="t" glyph-name="t" horiz-adv-x="352" d="M351 398H215L150 162Q137 111 137 91Q137 52 174 52Q223 52 277 169L312 158Q249 -9 152 -9Q107 -9 83 15T59 78Q59 104 77 176L138 398H47L58 442H149L183 567L263 577L226 442H363L351 398Z" />
<glyph unicode="u" glyph-name="u" horiz-adv-x="555" d="M414 -9Q344 -9 344 76Q344 121 366 191L359 194Q262 -9 160 -9Q122 -9 100 18T77 91Q77 135 113 239T150 374Q150 400 131 400Q114 400 97 377T51 295L17 310Q52 386 83 422T155 458Q187 458 206 435T225
370Q225 324 190 229T155 97Q155 54 190 54Q239 54 302 151T420 452H501L424 162Q409 105 409 80Q409 50 433 50Q453 50 470 77T509 161L543 150Q490 -9 414 -9Z" />
<glyph unicode="v" glyph-name="v" horiz-adv-x="469" d="M157 458Q191 458 210 435T229 372Q229 325 190 228T151 104Q151 76 169 63T215 49Q265 49 308 100T375 220T400 350Q388 344 379 344Q357 344 344 357T331 394Q331 421 347 441T388 461Q447 461 447 369Q447
316 428 251T377 127T295 28T190 -12Q136 -12 105 17T73 94Q73 135 113 239T154 373Q154 399 134 399Q115 399 99 376T53 294L19 310Q54 386 85 422T157 458Z" />
<glyph unicode="w" glyph-name="w" horiz-adv-x="693" d="M159 458Q193 458 212 436T231 372Q230 323 189 227T147 96Q147 49 188 49Q293 49 393 452H466L415 240Q396 164 396 119Q396 49 448 49Q492 49 532 99T596 217T621 349Q606 344 600 344Q578 344 566 357T553
394Q553 421 568 441T609 461Q637 461 652 439T668 374Q668 300 639 213T553 57T427 -12Q376 -12 352 21T329 108Q329 133 332 154L325 156Q264 -12 166 -12Q122 -12 95 16T68 90Q68 135 112 237T156 374Q156 399 135 399Q117 399 101 376T55 294L21 310Q56 386
87 422T159 458Z" />
<glyph unicode="x" glyph-name="x" horiz-adv-x="515" d="M290 148Q290 46 340 46Q366 46 387 73T430 158L465 143Q412 -10 324 -10Q226 -10 229 145H223Q191 67 151 28T67 -12Q38 -12 22 4T5 48T19 94T55 113Q77 113 88 96T95 47Q145 63 183 146T222 301Q222
402 172 402Q146 402 125 375T82 290L47 305Q100 458 188 458Q286 458 283 303H289Q321 381 361 420T445 460Q474 460 491 444T508 400T493 354T457 335Q435 335 424 352T417 401Q367 385 329 303T290 148Z" />
<glyph unicode="y" glyph-name="y" horiz-adv-x="520" d="M156 458Q188 458 207 435T226 372Q226 325 195 242T163 127Q163 84 203 84Q257 84 318 170T425 452H501L420 108Q386 -35 323 -99T164 -163Q112 -163 74 -144T35 -82Q35 -59 51 -40T91 -20Q113 -20 125
-33T136 -67Q134 -94 114 -109Q134 -121 166 -121Q235 -121 280 -61T356 136L364 174L358 177Q268 21 175 21Q134 21 110 47T85 119Q85 158 118 250T151 374Q151 399 133 399Q114 399 96 373T52 294L18 310Q52 385 84 421T156 458Z" />
<glyph unicode="z" glyph-name="z" horiz-adv-x="428" d="M101 113Q130 108 180 88T255 67Q291 67 310 89T361 180L396 165Q363 75 328 33T233 -9Q169 -9 110 63L84 95L75 93Q66 -9 17 -9Q1 -9 -10 1T-22 27Q-22 78 54 105Q104 170 181 234T325 336Q296 341 247
361T173 382Q138 382 119 360T68 268L33 284Q67 375 102 416T195 458Q259 458 316 385L342 354L351 356Q361 458 409 458Q426 458 437 448T448 422Q448 370 372 344Q322 279 245 215T101 113Z" />
<glyph unicode="{" glyph-name="braceleft" horiz-adv-x="388" d="M289 -153Q120 -124 120 -15Q120 25 145 101T171 199Q171 260 61 260H26L38 308H68Q152 308 193 348Q217 373 228 417T240 502T254 590T297 666Q361 730 500 721L488 676Q400 676 364 640Q342
618 331 575T316 491T300 405T260 335Q219 294 143 285L142 282Q241 264 241 188Q241 159 219 87T196 -16Q196 -86 301 -107L289 -153Z" />
<glyph unicode="|" glyph-name="bar" horiz-adv-x="277" d="M5 -199L231 703L284 695L58 -206L5 -199Z" />
<glyph unicode="}" glyph-name="braceright" horiz-adv-x="388" d="M111 721Q280 692 280 583Q280 543 255 467T229 369Q229 308 339 308H374L362 260H332Q248 260 207 220Q183 195 172 151T160 66T146 -22T103 -98Q39 -162 -100 -153L-88 -108Q0 -108 36 -72Q58
-50 69 -7T84 77T100 163T140 233Q181 274 257 283L258 286Q159 304 159 380Q159 409 181 481T204 584Q204 654 99 675L111 721Z" />
<glyph unicode="~" glyph-name="asciitilde" horiz-adv-x="371" d="M144 317Q127 317 115 302T85 252H45Q69 317 95 346T156 375Q189 375 225 345T275 315Q292 315 305 330T335 380H374Q350 315 324 286T262 257Q230 257 194 287T144 317Z" />
</font>
</defs>
</svg>
