<?xml version="1.0" standalone="no"?> <!DOCTYPE svg PUBLIC "-//W3C//DTD SVG 1.0//EN" "http://www.w3.org/TR/2001/REC-SVG-20010904/DTD/svg10.dtd" > <svg xmlns="http://www.w3.org/2000/svg" width="100%" height="100%">
<defs >
<font id="sentinel-light" horiz-adv-x="410" ><font-face
    font-family="Sentinel Light"
    units-per-em="1000"
    panose-1="2 0 0 0 0 0 0 0 0 0"
    ascent="800"
    descent="-200"
    alphabetic="0" />
<missing-glyph horiz-adv-x="500" d="M0 -200V800H500V-200H0ZM71 750L250 360L429 750H71ZM50 -76L222 300L50 676V-76ZM450 676L278 300L450 -76V676ZM250 240L71 -150H429L250 240Z" />
<glyph unicode=" " glyph-name="space" horiz-adv-x="174" />
<glyph unicode="!" glyph-name="exclam" horiz-adv-x="256" d="M86 674T128 674T170 622Q170 602 156 436Q143 275 139 190H117Q113 275 100 436Q86 599 86 622Q86 674 128 674ZM149 -14T128 -14T93 0T78 36T92 71T128 86T163 72T178 36T164 1Z" />
<glyph unicode="&quot;" glyph-name="quotedbl" horiz-adv-x="367" d="M232 413L210 423L238 526Q260 610 268 627Q279 652 301 652Q316 652 327 643T339 619Q339 608 331 589Q320 566 284 503L232 413ZM82 413L60 423L88 526Q110 610 118 627Q129 652 151 652Q166
652 177 643T189 619Q189 608 181 589Q170 566 134 503L82 413Z" />
<glyph unicode="#" glyph-name="numbersign" horiz-adv-x="663" d="M213 414H71V458H221L260 653H310L272 458H444L483 653H533L494 458H628V414H486L445 206H587V162H436L397 -40H346L386 162H214L175 -40H124L163 162H31V206H172L213 414ZM435 414H263L223 206H394L435
414Z" />
<glyph unicode="$" glyph-name="dollar" horiz-adv-x="511" d="M281 -78H243V0Q155 4 97 42T39 127Q39 152 54 168T94 185Q116 185 130 170T144 135Q144 102 113 82Q153 42 243 36V286Q141 316 101 352T61 456Q61 518 110 566T243 622V691H281V624Q355 621 408
585T462 501Q462 477 448 462T412 447Q390 447 377 460T363 492Q363 527 397 541Q358 584 281 588V344Q387 315 426 277T466 173Q466 108 415 58T281 0V-78ZM406 159Q406 201 378 227T281 275V36Q337 41 371 75T406 159ZM120 470Q120 429 148 403T243 355V587Q183
581 152 547T120 470Z" />
<glyph unicode="%" glyph-name="percent" horiz-adv-x="755" d="M162 267Q108 267 76 302T43 397Q43 484 99 549T230 614Q287 614 314 572Q359 546 408 546Q504 546 572 628H608L188 -26H131L524 554L521 557Q464 512 397 512Q360 512 331 523Q333 507 333 497Q333
413 285 340T162 267ZM541 -14Q487 -14 455 21T422 116Q422 203 478 268T609 333Q656 333 684 304T712 216Q712 132 664 59T541 -14ZM549 24Q601 24 637 84T674 216Q674 253 658 273T610 293Q558 292 521 234T484 109Q484 69 501 47T549 24ZM170 305Q222 305 258
365T295 497Q295 519 288 538Q263 552 238 574H231Q179 573 142 515T105 390Q105 350 122 328T170 305Z" />
<glyph unicode="&amp;" glyph-name="ampersand" horiz-adv-x="710" d="M480 375H683V335H605Q549 204 481 122Q510 75 531 56T575 37Q612 37 641 104L671 91Q633 -16 557 -16Q487 -16 432 74Q347 -16 235 -16Q154 -16 103 31T52 147Q52 208 92 253T219 333Q152
400 152 474Q152 534 198 577T308 620Q370 620 408 583T447 497Q447 447 418 409T314 334Q399 254 459 155Q513 222 560 335H480V375ZM256 34Q336 34 411 107Q356 208 246 308Q183 279 153 243T123 155Q123 107 160 71T256 34ZM213 491Q213 456 229 427T289 357Q386
408 386 494Q386 533 364 558T305 583Q263 583 238 556T213 491Z" />
<glyph unicode="&apos;" glyph-name="quotesingle" horiz-adv-x="221" d="M82 413L60 423L88 526Q110 610 118 627Q129 652 151 652Q166 652 177 643T189 619Q189 608 181 589Q170 566 134 503L82 413Z" />
<glyph unicode="(" glyph-name="parenleft" horiz-adv-x="361" d="M337 -157Q70 -7 70 285T337 727L356 697Q139 556 139 285T356 -127L337 -157Z" />
<glyph unicode=")" glyph-name="parenright" horiz-adv-x="361" d="M24 727Q291 577 291 285T24 -157L5 -127Q222 14 222 285T5 697L24 727Z" />
<glyph unicode="*" glyph-name="asterisk" horiz-adv-x="385" d="M205 416Q200 431 198 476T195 524L183 527Q124 454 112 445Q86 424 67 449T76 493Q85 499 103 507T145 525T176 538V549Q171 551 146 560T103 577T76 591Q48 611 65 636Q83 662 112 640Q123 632
152 596T183 559L194 562Q195 567 197 611T203 670Q214 703 244 693Q271 684 260 651Q256 638 232 600T206 559L213 549Q302 574 319 574Q352 574 352 544T318 514Q304 514 260 525T212 537L206 527Q255 456 261 434Q271 403 244 393Q215 383 205 416Z" />
<glyph unicode="+" glyph-name="plus" horiz-adv-x="523" d="M241 67V256H57V294H241V483H283V294H467V256H283V67H241Z" />
<glyph unicode="," glyph-name="comma" horiz-adv-x="200" d="M30 -132L17 -105Q66 -81 87 -57T114 -3L112 -1Q102 -6 92 -6Q74 -6 62 6T50 38T63 71T97 86Q123 86 137 68T151 20Q151 -78 30 -132Z" />
<glyph unicode="-" glyph-name="hyphen" horiz-adv-x="366" d="M55 210V265H311V210H55Z" />
<glyph unicode="." glyph-name="period" horiz-adv-x="200" d="M121 -14T100 -14T65 0T50 36T64 71T100 86T135 72T150 36T136 1Z" />
<glyph unicode="/" glyph-name="slash" horiz-adv-x="408" d="M-48 -203L338 694H389L3 -203H-48Z" />
<glyph unicode="0" glyph-name="zero" horiz-adv-x="549" d="M276 -16Q170 -16 109 75T47 309Q47 451 109 544T273 638Q379 638 440 547T502 314Q502 171 440 78T276 -16ZM203 24T278 24T391 102T429 311Q429 440 388 519T271 598Q196 598 158 520T120 311Q120
183 161 104Z" />
<glyph unicode="1" glyph-name="one" horiz-adv-x="427" d="M48 0V40H196V528Q162 511 101 511Q68 511 48 517V550Q108 550 156 571T225 631H263V40H401V0H48Z" />
<glyph unicode="2" glyph-name="two" horiz-adv-x="526" d="M46 53Q46 108 94 162T252 286Q321 329 355 371T390 467Q390 523 353 561T255 599Q205 599 169 577T117 523Q163 513 163 469Q163 448 149 433T112 417Q89 417 73 435T57 484Q57 541 117 589T264 638Q357
638 409 588T461 465Q461 399 417 350T276 251Q108 163 96 82L98 81Q136 101 181 101Q216 101 269 74T348 47Q388 47 411 82T453 202L483 200Q473 84 437 34T342 -16Q303 -16 244 25T157 66Q141 66 126 61Q136 43 136 29Q136 9 126 -3T97 -16Q73 -16 60 4T46 53Z"
/>
<glyph unicode="3" glyph-name="three" horiz-adv-x="505" d="M238 -16Q155 -16 97 24T38 118Q38 143 53 160T92 178Q114 178 128 164T142 129Q142 92 109 73Q149 23 234 23Q299 23 340 62T382 160Q382 226 336 263T204 300H175V342H199Q283 342 328 377T373 478Q373
531 338 565T240 599Q149 599 114 540Q157 526 157 486Q157 466 144 451T107 435T69 451T53 495Q53 549 108 593T248 638Q337 638 390 593T444 478Q444 359 289 322V320Q453 290 453 172Q453 93 394 39T238 -16Z" />
<glyph unicode="4" glyph-name="four" horiz-adv-x="544" d="M324 220V558H322L78 220H324ZM389 40H487V0H224V40H323V178H25V221L324 633H389V220H520V178H389V40Z" />
<glyph unicode="5" glyph-name="five" horiz-adv-x="497" d="M138 558L124 347Q182 393 263 393Q347 393 401 341T455 206Q455 118 397 51T239 -16Q160 -16 101 26T42 127Q42 155 59 174T100 193T137 179T150 144T137 108T104 86Q145 23 234 23Q303 23 343 72T384
200Q384 275 351 313T255 352Q177 352 113 290L77 302L99 625L110 633Q205 596 286 596Q360 596 429 632L441 611Q378 530 276 530Q209 530 138 558Z" />
<glyph unicode="6" glyph-name="six" horiz-adv-x="514" d="M115 296Q176 389 278 389Q366 389 417 336T468 199Q468 109 414 47T263 -16Q162 -16 104 62T46 272Q46 432 117 535T309 638Q377 638 417 607T458 531Q458 502 442 484T401 465T362 479T348 515Q348
533 359 548T391 569Q367 599 312 599Q221 599 171 520T115 296ZM121 189Q121 119 161 72T266 24Q328 24 362 70T397 195Q397 258 363 303T266 348Q204 348 163 303T121 189Z" />
<glyph unicode="7" glyph-name="seven" horiz-adv-x="520" d="M254 34Q251 -16 214 -16Q197 -16 186 -6T175 24Q174 105 226 230T367 450Q426 513 444 549L442 551Q388 520 348 520Q311 520 261 542T185 564Q144 564 121 527T91 394H53V625H93L97 536H99Q131 630
202 630Q243 630 288 592T365 553Q392 553 425 570Q411 584 411 601Q411 617 422 628T451 640Q471 640 483 627T495 593Q495 562 477 533T397 432Q326 348 294 258T254 34Z" />
<glyph unicode="8" glyph-name="eight" horiz-adv-x="524" d="M65 465Q65 539 120 588T267 638Q353 638 405 592T457 482Q457 371 338 322Q478 271 478 170Q478 92 415 38T256 -16Q164 -16 105 32T46 150Q46 268 175 317Q65 367 65 465ZM410 152Q410 201 368 232T219
300Q106 257 106 155Q106 99 149 61T262 22Q325 22 367 60T410 152ZM133 480Q133 429 169 397T295 337Q399 384 399 474Q399 527 362 563T263 599Q204 599 169 564T133 480Z" />
<glyph unicode="9" glyph-name="nine" horiz-adv-x="514" d="M399 318Q338 225 236 225Q148 225 97 279T46 419Q46 512 100 575T251 638Q352 638 410 560T468 350Q468 187 399 86T209 -16Q133 -16 91 16T48 97Q48 125 64 143T105 161T144 147T158 111Q158 93 147
78T115 57Q143 23 206 23Q296 23 345 100T399 318ZM393 429Q393 501 353 549T248 598Q186 598 152 552T117 423Q117 357 150 312T248 266Q311 266 352 312T393 429Z" />
<glyph unicode=":" glyph-name="colon" horiz-adv-x="200" d="M121 290T100 290T65 304T50 340T64 375T100 390T135 376T150 340T136 305ZM121 -14T100 -14T65 0T50 36T64 71T100 86T135 72T150 36T136 1Z" />
<glyph unicode=";" glyph-name="semicolon" horiz-adv-x="200" d="M121 290T100 290T65 304T50 340T64 375T100 390T135 376T150 340T136 305ZM30 -132L17 -105Q66 -81 87 -57T114 -3L112 -1Q102 -6 92 -6Q74 -6 62 6T50 38T63 71T97 86Q123 86 137 68T151 20Q151
-78 30 -132Z" />
<glyph unicode="&lt;" glyph-name="less" horiz-adv-x="510" d="M428 81L82 260V291L428 469V426L132 275L428 125V81Z" />
<glyph unicode="=" glyph-name="equal" horiz-adv-x="526" d="M60 343V381H466V343H60ZM60 169V207H466V169H60Z" />
<glyph unicode="&gt;" glyph-name="greater" horiz-adv-x="510" d="M82 469L428 290V259L82 81V124L378 275L82 425V469Z" />
<glyph unicode="?" glyph-name="question" horiz-adv-x="411" d="M179 190Q178 248 192 287T242 371Q287 425 301 453T316 522Q316 571 284 604T200 638Q161 638 132 620T89 577Q137 568 137 524Q137 502 123 487T85 471Q61 471 46 488T30 532Q30 588 82 631T205
674Q290 674 338 631T387 522Q387 473 365 435T286 347Q246 311 228 275T207 190H179ZM217 -14T196 -14T161 0T146 36T160 71T196 86T231 72T246 36T232 1Z" />
<glyph unicode="@" glyph-name="at" horiz-adv-x="908" d="M458 -146Q285 -146 175 -43T64 241Q64 426 187 550T489 674Q638 674 741 580T844 330Q844 206 778 133T624 59Q571 59 545 86T523 167L516 170Q448 73 376 73Q328 73 298 107T268 200Q268 261 294 319T363
417Q423 470 481 470Q515 470 541 450T576 388L600 465H656L582 219Q544 95 634 95Q704 95 754 159T805 329Q805 468 715 553T485 638Q320 638 212 523T103 240Q103 80 200 -15T461 -110Q608 -110 724 -25L742 -52Q616 -146 458 -146ZM395 117Q453 117 505 194T558
341Q558 374 540 404T484 434Q425 434 377 359T329 202Q329 161 347 139T395 117Z" />
<glyph unicode="A" glyph-name="A" horiz-adv-x="672" d="M514 40L442 238H197L120 40H212V0H3V40H72L317 653H362L590 40H669V0H412V40H514ZM323 559L212 276H428L325 559H323Z" />
<glyph unicode="B" glyph-name="B" horiz-adv-x="619" d="M34 0V40H144V608H34V648H315Q553 648 553 492Q553 444 516 401T393 342V340Q485 333 534 290T584 183Q584 0 316 0H34ZM214 360H328Q403 360 440 394T478 493Q478 550 445 579T334 608H214V360ZM214 40H331Q424
40 466 75T508 186Q508 249 461 285T325 321H214V40Z" />
<glyph unicode="C" glyph-name="C" horiz-adv-x="674" d="M347 -16Q217 -16 136 77T54 323Q54 471 139 567T352 663Q473 663 543 582L563 660H603V422H569Q539 520 488 568T350 617Q251 617 191 538T130 329Q130 188 194 110T360 31Q446 31 502 89T573 249H618Q601
121 532 53T347 -16Z" />
<glyph unicode="D" glyph-name="D" horiz-adv-x="690" d="M34 0V40H144V608H34V648H293Q464 648 551 564T638 334Q638 184 553 92T297 0H34ZM214 40H301Q435 40 498 114T562 334Q562 465 497 536T296 608H214V40Z" />
<glyph unicode="E" glyph-name="E" horiz-adv-x="640" d="M34 0V40H144V608H34V648H572V452H540Q525 556 512 582T461 608H214V351H337Q373 351 383 367T402 450H433V212H402Q395 281 384 298T337 315H214V40H461Q505 40 519 68T549 216H581V0H34Z" />
<glyph unicode="F" glyph-name="F" horiz-adv-x="628" d="M34 0V40H144V608H34V648H585V448H553Q538 551 522 579T465 608H214V339H333Q367 339 377 355T398 441H429V195H398Q390 267 379 285T333 303H214V40H335V0H34Z" />
<glyph unicode="G" glyph-name="G" horiz-adv-x="705" d="M531 91Q503 39 454 12T343 -16Q212 -16 133 81T54 326Q54 466 136 564T345 663Q399 663 448 642T530 582L550 660H590V428H556Q498 617 347 617Q244 617 187 539T130 332Q130 193 189 113T351 32Q425
32 472 79Q527 134 527 245V273H404V313H688V273H597V-7H561L531 91Z" />
<glyph unicode="H" glyph-name="H" horiz-adv-x="758" d="M34 0V40H144V608H34V648H314V608H214V354H544V608H444V648H724V608H614V40H724V0H444V40H544V316H214V40H314V0H34Z" />
<glyph unicode="I" glyph-name="I" horiz-adv-x="366" d="M38 0V40H148V608H38V648H328V608H218V40H328V0H38Z" />
<glyph unicode="J" glyph-name="J" horiz-adv-x="508" d="M208 -16Q129 -16 82 27T34 127Q34 157 51 176T94 196T134 180T148 141Q148 94 98 85Q109 61 137 44T203 27Q257 27 288 64T319 165V608H216V648H484V608H389V180Q389 89 339 37T208 -16Z" />
<glyph unicode="K" glyph-name="K" horiz-adv-x="712" d="M214 227V40H314V0H34V40H144V608H34V648H314V608H214V283L536 608H444V648H685V608H600L368 379L622 40H700V0H441V40H535L320 331L214 227Z" />
<glyph unicode="L" glyph-name="L" horiz-adv-x="603" d="M34 648H335V608H214V40H458Q487 40 499 76T531 245H563V0H34V40H144V608H34V648Z" />
<glyph unicode="M" glyph-name="M" horiz-adv-x="912" d="M34 0V40H139V608H34V648H255L454 121H457L662 648H878V608H768V40H878V0H610V40H698V608H694L451 -1H427L189 608H185V40H279V0H34Z" />
<glyph unicode="N" glyph-name="N" horiz-adv-x="747" d="M587 -16L187 563H185V40H282V0H34V40H139V608H34V648H212L577 119H579V608H480V648H723V608H625V-16H587Z" />
<glyph unicode="O" glyph-name="O" horiz-adv-x="704" d="M352 -16Q225 -16 140 79T54 324Q54 469 141 565T352 662Q480 662 565 568T650 323Q650 177 563 81T352 -16ZM251 27T352 27T513 107T574 323Q574 457 514 538T352 619T191 538T130 324Q130 190 190 109Z" />
<glyph unicode="P" glyph-name="P" horiz-adv-x="600" d="M34 0V40H144V608H34V648H315Q563 648 563 464Q563 377 498 324T315 270H214V40H335V0H34ZM214 310H316Q400 310 443 352T487 466Q487 608 319 608H214V310Z" />
<glyph unicode="Q" glyph-name="Q" horiz-adv-x="704" d="M352 -16Q225 -16 140 79T54 324Q54 469 141 565T352 662Q480 662 565 568T650 323Q650 236 617 163T525 45Q557 -9 577 -29T620 -50Q675 -50 691 59H733Q721 -105 612 -105Q568 -105 538 -76T477 14Q417
-16 352 -16ZM216 80Q205 137 235 182T333 227Q384 227 421 193T499 90Q574 173 574 323Q574 457 514 538T352 619T191 538T130 324Q130 160 216 80ZM365 26Q416 26 458 53Q426 121 398 154T327 187Q293 187 273 165T252 109Q252 72 279 49T365 26Z" />
<glyph unicode="R" glyph-name="R" horiz-adv-x="670" d="M214 296V40H325V0H34V40H144V608H34V648H351Q458 648 516 603T575 480Q575 424 538 379T425 319V317Q489 300 516 267T549 174L556 84Q560 38 594 38Q625 38 645 89L670 76Q654 32 631 11T571 -11Q528
-11 504 15T479 105L477 184Q475 245 447 270T346 296H214ZM214 333H341Q421 333 459 373T497 484Q497 608 354 608H214V333Z" />
<glyph unicode="S" glyph-name="S" horiz-adv-x="561" d="M56 -13V205H89Q170 21 320 21Q379 21 416 54T453 150Q453 215 413 243T274 296Q236 306 211 314T155 337T107 370T77 416T65 480Q65 561 118 611T260 662Q363 662 431 587L451 659H486V453H453Q422 542
370 584T255 626Q201 626 164 594T127 502Q127 474 136 453T157 419T195 394T239 376T293 361T344 347T390 332T433 314T466 292T493 263T508 226T515 178Q515 93 459 39T315 -16Q199 -16 113 73L91 -13H56Z" />
<glyph unicode="T" glyph-name="T" horiz-adv-x="664" d="M183 0V40H297V608H173Q125 608 112 579T82 428H51V648H613V428H582Q565 549 552 578T491 608H367V40H481V0H183Z" />
<glyph unicode="U" glyph-name="U" horiz-adv-x="720" d="M358 -16Q239 -16 179 41T119 196V608H24V648H292V608H189V209Q189 117 236 75T378 33Q463 33 512 80Q561 129 561 232V608H462V648H696V608H607V212Q607 109 544 47T358 -16Z" />
<glyph unicode="V" glyph-name="V" horiz-adv-x="674" d="M313 -4L82 608H3V648H260V608H158L348 93H350L554 608H462V648H671V608H602L355 -4H313Z" />
<glyph unicode="W" glyph-name="W" horiz-adv-x="977" d="M624 608H528L684 101H686L856 608H764V648H971V608H902L693 -4H647L492 489L324 -4H278L85 608H6V648H255V608H159L315 101H317L470 559L455 608H378V648H624V608Z" />
<glyph unicode="X" glyph-name="X" horiz-adv-x="663" d="M402 608V648H638V608H559L369 338L566 40H651V0H391V40H482L322 290L150 40H246V0H12V40H91L292 325L106 608H20V648H282V608H190L339 373L500 608H402Z" />
<glyph unicode="Y" glyph-name="Y" horiz-adv-x="628" d="M329 324L499 608H415V648H628V608H551L347 275V40H448V0H176V40H277V274L85 608H3V648H260V608H170L329 324Z" />
<glyph unicode="Z" glyph-name="Z" horiz-adv-x="592" d="M37 0V25L456 608H165Q143 608 133 598T113 554T91 436H59V648H550V623L133 40H444Q475 40 486 69T517 219H549V0H37Z" />
<glyph unicode="[" glyph-name="bracketleft" horiz-adv-x="334" d="M89 -149V719H325V681H154V-111H325V-149H89Z" />
<glyph unicode="\" glyph-name="backslash" horiz-adv-x="408" d="M405 -203L19 694H70L456 -203H405Z" />
<glyph unicode="]" glyph-name="bracketright" horiz-adv-x="334" d="M245 719V-149H9V-111H180V681H9V719H245Z" />
<glyph unicode="^" glyph-name="asciicircum" horiz-adv-x="333" d="M34 508L148 703H184L298 508H267L166 632L65 508H34Z" />
<glyph unicode="_" glyph-name="underscore" horiz-adv-x="440" d="M-2 0V45H442V0H-2Z" />
<glyph unicode="`" glyph-name="grave" horiz-adv-x="238" d="M165 523H137L73 606Q64 617 57 626T45 644T36 658T30 672T28 685Q28 700 37 708T58 717Q75 717 87 702T114 649L165 523Z" />
<glyph unicode="a" glyph-name="a" horiz-adv-x="477" d="M173 -8Q114 -8 81 23T48 107Q48 155 77 184Q101 208 138 221T248 247Q296 255 308 260T320 277V319Q320 416 225 416Q162 416 131 385Q158 369 158 341Q158 320 145 307T111 293Q90 293 77 306T64 344Q64
387 115 418T232 450Q384 450 384 318V81Q384 36 414 36Q439 36 458 78L483 66Q465 27 448 11T399 -6Q330 -6 327 78H325Q299 39 259 16T173 -8ZM200 35Q245 35 282 66T320 135V232Q314 230 268 222Q187 209 153 186T118 117Q118 35 200 35Z" />
<glyph unicode="b" glyph-name="b" horiz-adv-x="510" d="M276 36Q331 36 364 86T398 225Q398 311 366 359T280 408Q223 408 185 352T146 211Q146 128 184 82T276 36ZM84 -5V647H8V687H148V343Q202 452 300 452Q360 452 403 411Q467 348 467 228Q467 106 399 38Q353
-8 289 -8Q241 -8 201 21T141 101L115 -5H84Z" />
<glyph unicode="c" glyph-name="c" horiz-adv-x="464" d="M240 -9Q155 -9 98 53T41 211Q41 318 100 385T260 452Q329 452 377 412T426 326Q426 301 412 284T374 266Q352 266 339 280T325 315Q325 352 363 365Q326 416 258 416T150 362T110 219Q110 134 149 84T254
34Q349 34 393 142H431Q411 68 362 30T240 -9Z" />
<glyph unicode="d" glyph-name="d" horiz-adv-x="522" d="M210 -8Q150 -8 107 33Q43 96 43 216Q43 338 111 406Q157 452 221 452Q265 452 302 428T360 359V648H284V687H424V40H500V0H362V101Q308 -8 210 -8ZM230 36Q287 36 325 92T364 233Q364 316 326 362T234
408Q179 408 146 358T112 219Q112 133 144 85T230 36Z" />
<glyph unicode="e" glyph-name="e" horiz-adv-x="465" d="M426 219H110Q111 131 151 83T256 35Q351 35 386 126H423Q402 60 357 26T246 -9Q154 -9 98 53T41 217T101 385T246 452Q335 452 381 384T426 219ZM244 416Q191 416 155 374T112 259H358Q353 335 324 375T244 416Z" />
<glyph unicode="f" glyph-name="f" horiz-adv-x="329" d="M36 0V40H112V403H20V443H112V478Q112 591 161 642T288 693Q338 693 374 670T411 608Q411 586 398 571T365 556Q343 556 331 568T319 600Q319 615 327 626T342 641Q325 659 284 659Q228 659 202 619T176
481V443H310V403H176V40H282V0H36Z" />
<glyph unicode="g" glyph-name="g" horiz-adv-x="463" d="M388 305Q388 237 343 199T221 160Q210 160 189 161T159 163Q135 163 118 151T101 122Q101 82 191 82H308Q428 82 428 -11Q428 -72 368 -114T212 -156Q125 -156 75 -127T25 -52Q25 -19 51 5T120 39V41Q80
52 63 68T46 108T69 151T131 180Q53 221 53 303Q53 370 101 409T220 449Q257 449 297 433Q348 523 411 523Q434 523 448 510T463 475Q463 456 452 444T421 431Q404 431 394 442T384 470Q384 476 385 480Q351 476 321 420Q388 379 388 305ZM225 192Q269 192 294
221T319 304Q319 354 292 386T218 418Q174 418 148 389T122 304Q122 250 150 221T225 192ZM215 -122Q286 -122 328 -96T371 -28Q371 29 299 29H187Q141 29 115 9T88 -49Q88 -83 120 -102T215 -122Z" />
<glyph unicode="h" glyph-name="h" horiz-adv-x="544" d="M22 0V40H98V648H22V687H162V329Q231 452 330 452Q389 452 420 416T452 310V40H528V0H318V40H388V274Q388 351 362 377Q341 399 302 399Q249 399 206 350T162 255V40H232V0H22Z" />
<glyph unicode="i" glyph-name="i" horiz-adv-x="287" d="M145 550Q124 550 110 563T96 599Q96 620 110 634T145 649Q164 649 178 635T192 600Q192 578 179 564T145 550ZM33 0V40H119V403H33V443H183V40H269V0H33Z" />
<glyph unicode="j" glyph-name="j" horiz-adv-x="273" d="M151 550Q130 550 116 563T102 599Q102 620 116 634T151 649Q170 649 184 635T198 600Q198 578 185 564T151 550ZM58 -160Q17 -160 -13 -138T-43 -83Q-43 -61 -30 -46T5 -31T38 -43T50 -73Q50 -101 24
-118Q38 -129 58 -129Q89 -129 107 -102T125 -19V403H39V443H189V9Q189 -76 154 -118T58 -160Z" />
<glyph unicode="k" glyph-name="k" horiz-adv-x="507" d="M410 403L286 274L440 40H499V0H304V39H367L242 232L162 149V40H229V0H22V40H98V648H22V687H162V196L358 404H283V443H477V403H410Z" />
<glyph unicode="l" glyph-name="l" horiz-adv-x="272" d="M18 0V40H104V648H18V687H168V40H254V0H18Z" />
<glyph unicode="m" glyph-name="m" horiz-adv-x="826" d="M453 330Q523 452 616 452Q734 452 734 309V40H810V0H605V40H670V274Q670 354 645 379Q626 398 588 398Q536 398 495 350T454 255V40H519V0H325V40H390V274Q390 354 365 379Q346 398 308 398Q256 398 215
350T174 255V40H239V0H34V40H110V403H34V443H172V328Q243 452 336 452Q444 452 453 330Z" />
<glyph unicode="n" glyph-name="n" horiz-adv-x="556" d="M34 0V40H110V403H34V443H172V328Q243 452 342 452Q401 452 432 416T464 310V40H539V0H330V40H400V274Q400 351 374 377Q353 399 314 399Q261 399 218 350T174 255V40H244V0H34Z" />
<glyph unicode="o" glyph-name="o" horiz-adv-x="498" d="M249 -9Q159 -9 100 53T41 217Q41 320 102 386T249 452Q338 452 397 390T457 225Q457 122 396 57T249 -9ZM252 27Q309 27 348 77T388 222T346 366T246 416Q189 416 150 366T110 220Q110 126 152 77T252 27Z" />
<glyph unicode="p" glyph-name="p" horiz-adv-x="524" d="M292 44Q345 44 378 92T412 230Q412 322 379 365T297 408Q241 408 202 353T163 217Q163 141 200 93T292 44ZM25 -147V-107H101V403H25V443H163V338Q216 452 316 452Q378 452 421 409Q481 349 481 230Q481
113 415 47Q368 0 303 0Q255 0 220 27T165 96V-107H263V-147H25Z" />
<glyph unicode="q" glyph-name="q" horiz-adv-x="509" d="M232 408Q179 408 146 360T112 222Q112 130 145 87T227 44Q283 44 322 99T361 235Q361 311 324 359T232 408ZM361 114Q308 0 208 0Q147 0 103 43Q43 104 43 222Q43 339 109 405Q156 452 221 452Q268 452
308 423T368 343L394 449H425V-107H501V-147H263V-107H361V114Z" />
<glyph unicode="r" glyph-name="r" horiz-adv-x="391" d="M34 0V40H110V403H34V443H172V338Q197 393 233 421T310 450Q340 450 358 432T376 387Q376 366 362 351T327 335Q307 335 294 348T281 381Q281 391 286 403Q250 407 218 372T174 300V40H264V0H34Z" />
<glyph unicode="s" glyph-name="s" horiz-adv-x="425" d="M45 -9V159H78Q116 26 231 26Q274 26 301 46T328 101Q328 137 301 156T205 195Q122 218 88 247T53 326Q53 377 94 414T199 452Q284 452 320 397L332 452H364V300H333Q308 362 279 389T199 417Q162 417
137 398T111 347Q111 314 138 294T230 255Q317 230 350 203T383 122T342 30T234 -9Q140 -9 88 56L77 -9H45Z" />
<glyph unicode="t" glyph-name="t" horiz-adv-x="341" d="M100 567L164 577V443H309V403H164V109Q164 37 222 37Q250 37 268 56T300 118L329 108Q297 -9 208 -9Q155 -9 128 22T100 113V403H8V443H100V567Z" />
<glyph unicode="u" glyph-name="u" horiz-adv-x="540" d="M213 -9Q155 -9 124 27T92 133V403H17V443H156V169Q156 90 182 64Q201 44 241 44Q293 44 335 93T378 188V403H299V443H442V40H518V0H380V115Q310 -9 213 -9Z" />
<glyph unicode="v" glyph-name="v" horiz-adv-x="479" d="M219 -6L61 403H0V443H211V403H133L251 76H253L383 403H310V443H479V403H428L259 -6H219Z" />
<glyph unicode="w" glyph-name="w" horiz-adv-x="740" d="M490 403H412L524 79H526L644 403H571V443H737V403H686L533 -6H491L378 313L248 -6H206L64 403H3V443H210V403H132L239 79H241L357 372L346 403H285V443H490V403Z" />
<glyph unicode="x" glyph-name="x" horiz-adv-x="473" d="M210 405H143L247 256L361 405H299V443H463V403H412L271 228L408 40H463V0H268V38H334L228 186L113 38H173V0H10V40H64L204 214L66 403H10V443H210V405Z" />
<glyph unicode="y" glyph-name="y" horiz-adv-x="476" d="M67 -42Q87 -42 99 -54T112 -86Q112 -108 100 -123Q130 -126 160 -100T220 -1L60 403H0V443H210V403H132L255 76L380 403H308V443H476V403H425L274 23Q234 -78 191 -119T96 -160Q59 -160 38 -142T16 -97Q16
-74 30 -58T67 -42Z" />
<glyph unicode="z" glyph-name="z" horiz-adv-x="451" d="M32 0V34L332 408H136Q109 408 99 389T78 295H48V443H415V409L114 35H334Q360 35 368 56T387 159H417V0H32Z" />
<glyph unicode="{" glyph-name="braceleft" horiz-adv-x="388" d="M16 305H46Q114 305 148 331T183 401Q183 425 176 476T169 550Q169 714 365 721V687Q294 681 264 649T233 562Q233 538 238 487T243 411Q243 363 211 330T123 286V285Q179 274 211 241T243 160Q243
135 238 84T233 9Q233 -46 263 -78T365 -116V-150Q169 -143 169 21Q169 43 176 94T183 170Q183 213 149 239T46 266H16V305Z" />
<glyph unicode="|" glyph-name="bar" horiz-adv-x="270" d="M112 -203V694H158V-203H112Z" />
<glyph unicode="}" glyph-name="braceright" horiz-adv-x="388" d="M372 266H342Q274 266 240 240T205 170Q205 146 212 95T219 21Q219 -143 23 -150V-116Q94 -110 124 -78T155 9Q155 33 150 84T145 160Q145 208 177 241T265 285V286Q209 297 177 330T145 411Q145
436 150 487T155 562Q155 617 125 649T23 687V721Q219 714 219 550Q219 528 212 477T205 401Q205 358 239 332T342 305H372V266Z" />
<glyph unicode="~" glyph-name="asciitilde" horiz-adv-x="371" d="M45 253Q54 319 73 346T127 373Q156 373 197 341T255 309Q290 309 302 378H330Q321 312 302 285T248 258Q220 258 178 290T120 322Q85 322 73 253H45Z" />
</font>
</defs>
</svg>
