<?xml version="1.0" standalone="no"?> <!DOCTYPE svg PUBLIC "-//W3C//DTD SVG 1.0//EN" "http://www.w3.org/TR/2001/REC-SVG-20010904/DTD/svg10.dtd" > <svg xmlns="http://www.w3.org/2000/svg" width="100%" height="100%">
<defs >
<font id="sentinel-mediumitalic" horiz-adv-x="425" ><font-face
    font-family="Sentinel Medium"
    units-per-em="1000"
    panose-1="0 0 0 0 0 0 0 0 0 0"
    ascent="800"
    descent="-200"
    alphabetic="0" />
<missing-glyph horiz-adv-x="500" d="M0 -200V800H500V-200H0ZM71 750L250 360L429 750H71ZM50 -76L222 300L50 676V-76ZM450 676L278 300L450 -76V676ZM250 240L71 -150H429L250 240Z" />
<glyph unicode=" " glyph-name="space" horiz-adv-x="174" />
<glyph unicode="!" glyph-name="exclam" horiz-adv-x="279" d="M106 185Q124 277 144 427T175 618Q192 684 242 684Q269 684 284 669T300 627Q300 607 285 564T232 416Q185 284 150 175L106 185ZM94 -16Q69 -16 52 0T35 47Q35 72 53 95T100 118Q125 118 142 102T159
55Q159 30 141 7T94 -16Z" />
<glyph unicode="&quot;" glyph-name="quotedbl" horiz-adv-x="399" d="M134 410L105 426L180 586Q200 629 213 645T247 662Q268 662 283 648T299 615Q299 598 284 578T226 510L134 410ZM305 410L276 426L351 586Q371 629 384 645T418 662Q439 662 454 648T470
615Q470 598 455 578T397 510L305 410Z" />
<glyph unicode="#" glyph-name="numbersign" horiz-adv-x="653" d="M93 413L107 472H250L305 667L371 659L319 472H466L521 667L587 659L535 472H661L647 413H518L464 217H605L591 158H447L391 -44L325 -36L379 158H231L175 -44L109 -36L163 158H37L51 217H179L234
413H93ZM302 413L248 217H395L450 413H302Z" />
<glyph unicode="$" glyph-name="dollar" horiz-adv-x="546" d="M369 707L427 697L410 631Q480 618 518 580T557 503Q557 469 538 446T491 422Q466 422 453 436T439 470Q439 489 449 505T476 531Q469 546 448 559T398 580L343 363Q375 347 395 334T439 301T473
255T484 198Q484 120 427 60T263 0H253L232 -86L174 -76L194 7Q123 22 79 61T34 146Q34 180 55 204T107 229Q132 229 147 213T163 175Q163 155 149 137T116 111Q132 75 208 57L264 285Q231 302 212 314T170 345T136 389T125 442Q125 527 192 581T351 636L369 707ZM397
159Q397 213 318 258L266 50Q330 51 363 81T397 159ZM220 477Q220 428 290 390L339 585Q286 581 253 549T220 477Z" />
<glyph unicode="%" glyph-name="percent" horiz-adv-x="788" d="M177 266Q113 266 80 300T46 395Q46 479 113 552T261 626Q330 626 359 577Q401 563 452 563Q513 563 563 583T671 646L710 609L153 -26L103 9L590 547L587 550Q522 513 444 513Q403 513 375 518V513Q375
464 352 408T281 309T177 266ZM574 -14Q510 -14 477 20T443 115Q443 199 510 272T658 346Q710 346 741 317T772 233Q772 184 749 128T678 29T574 -14ZM579 35Q630 35 674 102T718 231T667 293Q617 293 572 224T527 93Q527 35 579 35ZM182 315Q233 315 277 382T321
511Q321 519 319 533Q284 547 257 571Q210 562 170 496T130 373Q130 315 182 315Z" />
<glyph unicode="&amp;" glyph-name="ampersand" horiz-adv-x="682" d="M596 389Q627 389 647 371T667 323Q667 289 649 264T605 238Q575 238 562 263T563 319Q535 302 502 255T442 160Q464 103 480 78T512 53Q529 53 543 69T586 136L627 114Q571 -14 494 -14Q450
-14 425 8T373 84Q287 -16 194 -16Q115 -16 68 24T20 132Q20 204 72 258T231 345Q187 412 187 465Q187 540 239 585T362 630Q427 630 467 595T507 504Q507 397 347 337Q392 268 417 208Q447 253 470 293T527 361T596 389ZM216 57Q290 57 348 130Q314 221 257 307Q127
255 127 149Q127 105 150 81T216 57ZM278 486Q278 447 324 374Q424 421 424 505Q424 536 407 556T356 576Q324 576 301 552T278 486Z" />
<glyph unicode="&apos;" glyph-name="quotesingle" horiz-adv-x="228" d="M134 410L105 426L180 586Q200 629 213 645T247 662Q268 662 283 648T299 615Q299 598 284 578T226 510L134 410Z" />
<glyph unicode="(" glyph-name="parenleft" horiz-adv-x="361" d="M249 -156Q167 -102 117 -17T66 182Q66 371 177 519T465 721L483 672Q384 633 310 552T199 374T162 177Q162 -11 289 -115L249 -156Z" />
<glyph unicode=")" glyph-name="parenright" horiz-adv-x="361" d="M140 721Q222 667 272 582T323 383Q323 194 212 46T-76 -156L-94 -107Q5 -68 79 13T190 191T227 388Q227 576 100 680L140 721Z" />
<glyph unicode="*" glyph-name="asterisk" horiz-adv-x="437" d="M331 365Q327 375 325 396T319 447T314 488L301 491Q239 401 228 391Q192 360 167 390Q141 420 178 451Q186 458 204 466T251 487T289 504L287 517Q285 518 234 532T171 555Q132 581 152 614Q173
648 212 621Q221 615 234 601T269 563T296 533L309 539Q309 550 308 580T307 631T310 661Q321 706 359 697T385 642Q382 633 373 615T348 571T328 535L336 524Q344 527 374 537T423 554T453 561Q500 565 503 526Q505 506 494 496T458 484Q448 483 428 486T378 496T338
505L330 494Q337 485 355 462T386 421T403 394Q421 352 384 336Q349 320 331 365Z" />
<glyph unicode="+" glyph-name="plus" horiz-adv-x="525" d="M191 67L236 250H58L73 312H252L298 495H364L318 312H496L481 250H302L257 67H191Z" />
<glyph unicode="," glyph-name="comma" horiz-adv-x="231" d="M-46 -146L-56 -108Q56 -72 80 -7L75 -3Q67 -8 59 -8Q38 -8 25 5T11 42Q11 70 29 93T77 116Q111 116 129 94T147 39Q147 -20 100 -70T-46 -146Z" />
<glyph unicode="-" glyph-name="hyphen" horiz-adv-x="361" d="M51 211L70 288H321L302 211H51Z" />
<glyph unicode="." glyph-name="period" horiz-adv-x="231" d="M74 -16Q49 -16 32 0T15 47Q15 72 33 95T80 118Q105 118 122 102T139 55Q139 30 121 7T74 -16Z" />
<glyph unicode="/" glyph-name="slash" horiz-adv-x="431" d="M-128 -187L465 720L522 691L-71 -216L-128 -187Z" />
<glyph unicode="0" glyph-name="zero" horiz-adv-x="559" d="M243 -16Q153 -16 101 50T48 231Q48 398 137 524T350 650Q440 650 492 584T545 403Q545 236 456 110T243 -16ZM348 589Q304 589 266 548T204 445T167 318T154 198Q154 119 176 82T245 45Q289 45 327
86T389 189T426 316T439 436Q439 515 417 552T348 589Z" />
<glyph unicode="1" glyph-name="one" horiz-adv-x="474" d="M11 0L26 66H168L280 512Q244 498 198 498Q150 498 129 508L142 562Q197 559 253 580T341 641H411L267 66H411L401 0H11Z" />
<glyph unicode="2" glyph-name="two" horiz-adv-x="558" d="M218 550Q251 529 251 484Q251 458 235 437T184 413Q151 413 132 433T112 488Q112 550 176 600T342 650Q434 650 488 600T543 479Q543 401 492 355T355 278Q232 235 184 200T109 113L111 110Q159 135
206 135Q244 135 290 107T355 78Q386 78 411 104T470 198L515 189Q482 79 438 32T330 -16Q290 -16 258 7T201 53T157 76Q142 76 129 70Q132 49 132 47Q132 18 117 1T76 -16Q50 -16 35 3T19 57Q19 102 42 142T108 214T181 265T254 304Q294 324 315 335T365 365T408
400T433 440T444 489Q444 535 412 561T327 588Q256 588 218 550Z" />
<glyph unicode="3" glyph-name="three" horiz-adv-x="516" d="M113 86Q124 67 153 55T221 43Q291 43 327 90T363 200Q363 244 331 270T227 297H201L217 355H237Q292 355 321 363T370 392Q414 436 414 503Q414 591 314 591Q258 591 226 566Q243 546 243 519Q243
488 225 467T176 446Q150 446 134 462T118 506Q118 569 183 609T324 650Q415 650 467 607T519 503Q519 434 470 384T314 326L313 323Q390 309 428 273T466 186Q466 104 399 44T233 -16Q138 -16 78 27T18 133Q18 167 39 192T93 218Q119 218 135 201T152 158Q152
114 113 86Z" />
<glyph unicode="4" glyph-name="four" horiz-adv-x="556" d="M325 249L399 545H395L114 249H325ZM375 64H473L457 0H163L179 64H278L308 183H20L36 251L414 645H520L421 249H552L536 183H405L375 64Z" />
<glyph unicode="5" glyph-name="five" horiz-adv-x="520" d="M226 539L174 373Q218 400 290 400Q377 400 427 355T478 237Q478 139 408 62T214 -16Q141 -16 85 26T28 129Q28 169 50 199T107 229Q132 229 148 213T164 173Q164 122 112 98Q121 75 148 60T212 44Q288
44 331 103T374 241Q374 293 345 319T265 345Q199 345 135 305L94 324L190 631L207 644Q285 608 374 608Q457 608 533 640L548 608Q474 514 361 514Q288 514 226 539Z" />
<glyph unicode="6" glyph-name="six" horiz-adv-x="537" d="M257 45Q315 45 351 108T387 241Q387 288 361 315T291 342Q230 342 193 289T156 166Q156 109 183 77T257 45ZM545 533Q545 497 524 472T473 446Q447 446 432 461T416 498Q416 538 453 564Q440 589 388
589Q310 589 255 520T174 325Q240 402 323 402Q400 402 446 355T493 232Q493 190 479 148T437 68T364 8T262 -16Q169 -16 114 45T59 220Q59 323 96 420T210 583T383 650Q455 650 500 618T545 533Z" />
<glyph unicode="7" glyph-name="seven" horiz-adv-x="520" d="M225 47Q212 10 197 -5T160 -21T122 -4T106 37Q106 105 215 242T421 461L503 529L499 534Q441 505 387 505Q343 505 304 526T251 547Q224 547 203 518T149 405H87L144 635H212L198 563H203Q249 640
311 640Q335 640 356 627T389 597T420 568T463 554Q478 554 487 557Q483 570 483 585Q483 613 498 631T540 650Q564 650 578 634T592 597Q592 569 575 546T514 486Q319 329 225 47Z" />
<glyph unicode="8" glyph-name="eight" horiz-adv-x="532" d="M526 495Q526 439 490 396T384 332Q476 275 476 185Q476 104 413 44T242 -16Q147 -16 90 31T33 149Q33 209 75 254T195 317Q117 369 117 455Q117 529 175 589T337 650Q423 650 474 606T526 495ZM259
281L236 292Q184 275 154 239T124 155Q124 106 156 74T250 42Q313 42 347 75T381 155Q381 178 373 196T344 230T307 255T259 281ZM332 361L342 356Q392 376 417 413T443 494Q443 539 415 566T333 593Q278 593 245 562T211 489Q211 465 219 447T248 412T284 387T332
361Z" />
<glyph unicode="9" glyph-name="nine" horiz-adv-x="537" d="M319 589Q260 589 224 526T188 388Q188 339 213 312T283 284Q344 284 381 338T419 463Q419 523 393 556T319 589ZM23 109Q23 143 44 167T95 192Q121 192 136 177T152 140Q152 100 115 74Q138 45 190
45Q268 45 322 111T400 301Q336 224 251 224Q174 224 128 271T82 398Q82 457 105 512T184 609T314 650Q407 650 462 589T517 413Q517 308 482 212T372 50T200 -16Q120 -16 72 20T23 109Z" />
<glyph unicode=":" glyph-name="colon" horiz-adv-x="241" d="M79 -16Q54 -16 37 0T20 47Q20 72 38 95T85 118Q110 118 127 102T144 55Q144 30 126 7T79 -16ZM157 272Q132 272 115 288T98 335Q98 360 116 383T163 406Q188 406 205 390T222 343Q222 318 204 295T157 272Z" />
<glyph unicode=";" glyph-name="semicolon" horiz-adv-x="241" d="M157 272Q132 272 115 288T98 335Q98 360 116 383T163 406Q188 406 205 390T222 343Q222 318 204 295T157 272ZM-41 -146L-51 -108Q61 -72 85 -7L80 -3Q72 -8 64 -8Q43 -8 30 5T16 42Q16 70 34
93T82 116Q116 116 134 94T152 39Q152 -20 105 -70T-41 -146Z" />
<glyph unicode="&lt;" glyph-name="less" horiz-adv-x="524" d="M395 69L76 258L90 317L486 497L503 440L147 281L420 128L395 69Z" />
<glyph unicode="=" glyph-name="equal" horiz-adv-x="525" d="M82 345L98 407H515L499 345H82ZM35 155L51 217H468L452 155H35Z" />
<glyph unicode="&gt;" glyph-name="greater" horiz-adv-x="524" d="M158 497L477 308L463 249L67 69L50 126L406 285L133 438L158 497Z" />
<glyph unicode="?" glyph-name="question" horiz-adv-x="444" d="M355 264Q302 177 212 177Q165 177 134 204T103 276Q103 330 140 360T251 422Q286 436 305 446T347 471T379 504T389 547Q389 583 365 606T288 629T205 604Q223 579 223 554Q223 523 204 501T155
478Q128 478 112 496T95 541Q95 598 150 641T296 684T437 639T488 528Q488 493 475 466T435 420T383 388T317 361Q284 349 274 345T240 330T209 312T194 293T186 267Q186 231 227 231Q251 231 271 243T319 289L355 264ZM156 -16Q131 -16 114 0T97 47Q97 72 115
95T162 118Q187 118 204 102T221 55Q221 30 203 7T156 -16Z" />
<glyph unicode="@" glyph-name="at" horiz-adv-x="881" d="M633 -47L652 -83Q547 -146 416 -146Q258 -146 155 -50T52 206Q52 402 192 543T526 684Q670 684 763 602T857 379Q857 299 830 226T748 105T624 57Q570 57 541 87T521 171H519Q493 122 455 96T380 69Q324
69 287 109T250 221Q250 320 321 398T484 477Q521 477 546 456T575 395L600 472H676L593 219Q555 104 638 104Q695 104 749 181T803 376Q803 498 726 569T522 640Q411 640 315 581T163 422T106 208Q106 72 193 -15T422 -102Q536 -102 633 -47ZM398 124Q441 124
475 165T525 256T541 348Q541 431 483 431Q438 431 403 391T353 299T337 202Q337 124 398 124Z" />
<glyph unicode="A" glyph-name="A" horiz-adv-x="655" d="M347 66H451L437 231H207L109 66H192L176 0H-62L-46 66H25L393 662H494L556 66H647L631 0H331L347 66ZM241 289H432L408 565H404L241 289Z" />
<glyph unicode="B" glyph-name="B" horiz-adv-x="629" d="M-24 0L-9 66H101L232 592H120L136 658H411Q530 658 581 618T633 516Q633 452 584 403T428 346L427 341Q505 327 545 289T586 196Q586 125 537 76Q461 0 274 0H-24ZM281 375H365Q448 375 487 417T527 508Q527
550 500 571T407 592H335L281 375ZM204 66H292Q395 66 438 108T482 214Q482 261 446 289T333 317H267L204 66Z" />
<glyph unicode="C" glyph-name="C" horiz-adv-x="674" d="M332 -16Q198 -16 132 60T65 261Q65 426 174 550T437 674Q561 674 614 595L651 671H718L654 413H595Q586 521 545 564T433 608Q379 608 334 583T261 519T212 432T184 340T176 256Q176 159 220 107T341
54Q419 54 474 108T573 263L635 239Q594 125 519 55T332 -16Z" />
<glyph unicode="D" glyph-name="D" horiz-adv-x="708" d="M-24 0L-9 66H101L232 592H120L136 658H401Q545 658 626 587T708 405Q708 333 677 257T589 124Q465 0 252 0H-24ZM204 66H262Q410 66 485 141Q531 187 561 268T591 423Q591 506 542 549T396 592H335L204 66Z" />
<glyph unicode="E" glyph-name="E" horiz-adv-x="666" d="M136 658H708L655 444H609Q606 494 603 518T589 561T563 586T515 592H335L279 366H334Q391 366 412 382T464 467H518L453 205H401Q406 274 394 292T328 310H265L204 66H390Q412 66 427 68T457 80T480 97T504
130T529 173T561 234H611L553 0H-24L-9 66H101L232 592H120L136 658Z" />
<glyph unicode="F" glyph-name="F" horiz-adv-x="630" d="M276 355H323Q378 355 401 374T450 457H503L437 191H384Q392 264 380 281T309 299H262L204 66H326L311 0H-24L-9 66H101L232 592H120L136 658H694L639 439H593Q586 535 567 563T489 592H335L276 355Z" />
<glyph unicode="G" glyph-name="G" horiz-adv-x="704" d="M326 54Q392 54 443 104T516 237L523 265H401L418 331H730L713 265H626L556 -7H492L486 80Q417 -16 302 -16Q190 -16 128 62T65 261Q65 426 174 550T437 674Q561 674 614 595L651 671H718L654 413H595Q586
521 545 564T433 608Q379 608 334 583T261 520T212 434T184 343T176 262Q176 155 219 105T326 54Z" />
<glyph unicode="H" glyph-name="H" horiz-adv-x="779" d="M-24 0L-9 66H101L232 592H120L136 658H442L426 592H335L280 370H569L624 592H531L547 658H853L837 592H727L596 66H708L693 0H387L402 66H493L555 312H266L204 66H297L282 0H-24Z" />
<glyph unicode="I" glyph-name="I" horiz-adv-x="407" d="M-14 0L1 66H111L242 592H130L146 658H471L455 592H345L214 66H326L311 0H-14Z" />
<glyph unicode="J" glyph-name="J" horiz-adv-x="549" d="M522 592L417 170Q394 81 336 33T188 -16Q103 -16 55 26T6 127Q6 171 31 202T98 234Q129 234 146 215T163 169Q163 112 99 93Q105 75 131 61T192 47Q242 47 271 82T320 193L419 592H308L324 658H642L626 592H522Z" />
<glyph unicode="K" glyph-name="K" horiz-adv-x="706" d="M689 592L426 378L575 66H666L650 0H358L374 66H462L350 316L245 230L204 66H297L282 0H-24L-9 66H101L232 592H120L136 658H442L426 592H335L267 318L589 592H505L521 658H783L767 592H689Z" />
<glyph unicode="L" glyph-name="L" horiz-adv-x="596" d="M136 658H461L445 592H335L204 66H338Q401 66 431 96T516 234H566L508 0H-24L-9 66H101L232 592H120L136 658Z" />
<glyph unicode="M" glyph-name="M" horiz-adv-x="933" d="M-18 0L-3 66H97L228 592H126L142 658H403L444 166H447L732 658H1004L988 592H883L752 66H859L844 0H550L565 66H649L778 584H767L416 0H366L308 584H299L170 66H262L247 0H-18Z" />
<glyph unicode="N" glyph-name="N" horiz-adv-x="772" d="M524 -16L295 532H286L170 66H272L257 0H-18L-3 66H96L227 592H126L142 658H353L557 174H566L670 592H568L584 658H860L844 592H744L592 -16H524Z" />
<glyph unicode="O" glyph-name="O" horiz-adv-x="709" d="M65 271Q65 375 112 467T244 617T427 674Q546 674 621 594T697 387Q697 283 650 191T518 41T335 -16Q216 -16 141 64T65 271ZM419 608Q358 608 309 570T233 473T191 353T176 236Q176 145 219 98T343 50Q404
50 453 88T529 185T571 305T586 422Q586 513 543 560T419 608Z" />
<glyph unicode="P" glyph-name="P" horiz-adv-x="605" d="M255 270L204 66H324L309 0H-24L-9 66H101L232 592H120L136 658H404Q525 658 585 611T646 493Q646 463 638 434T607 375T551 322T461 285T333 270H255ZM270 330H341Q435 330 481 375T528 491Q528 592 383
592H335L270 330Z" />
<glyph unicode="Q" glyph-name="Q" horiz-adv-x="709" d="M335 -16Q216 -16 141 64T65 271Q65 375 112 467T244 617T427 674Q546 674 621 594T697 387Q697 280 645 185T508 35Q527 -24 564 -24Q589 -24 605 -8T643 59L692 42Q645 -107 547 -107Q497 -107 470 -79T426
-2Q381 -16 335 -16ZM194 142Q228 244 333 244Q398 244 432 210T484 116Q534 173 560 259T586 422Q586 513 543 560T419 608Q358 608 309 570T233 473T191 353T176 236Q176 170 194 142ZM343 48Q378 48 408 60Q392 119 373 149T312 179Q282 179 263 160T244 116Q244
87 272 68T343 48Z" />
<glyph unicode="R" glyph-name="R" horiz-adv-x="676" d="M-24 0L-9 66H101L232 592H120L136 658H448Q562 658 611 615T660 508Q660 436 610 384T457 322L454 313Q511 298 534 271T557 195Q557 179 553 144T548 94Q548 71 558 63T589 54Q611 54 644 69L660 25Q608
-11 543 -11Q437 -11 437 77Q437 98 447 151T458 229Q458 260 438 275T366 290H260L204 66H310L295 0H-24ZM275 350H369Q459 350 500 391Q520 411 532 444T544 510Q542 592 434 592H335L275 350Z" />
<glyph unicode="S" glyph-name="S" horiz-adv-x="570" d="M-8 -13L52 230H111Q129 139 175 93T287 46Q350 46 386 81T423 160Q423 175 419 188T402 213T382 233T352 252T321 268T285 286Q254 301 236 310T193 337T154 371T130 413T119 467Q119 546 185 610T350
674Q402 674 446 654T513 599L553 671H619L560 437H502Q482 534 446 573T343 613Q292 613 259 580T225 503Q225 479 235 460T270 425T311 400T365 375T425 346T474 313T515 263T528 197Q528 110 457 47T282 -16Q160 -16 102 61L58 -13H-8Z" />
<glyph unicode="T" glyph-name="T" horiz-adv-x="663" d="M107 0L122 66H235L369 602H328Q268 602 235 571T132 424H84L143 658H726L667 424H621Q614 536 596 569T515 602H472L338 66H453L438 0H107Z" />
<glyph unicode="U" glyph-name="U" horiz-adv-x="739" d="M361 -17Q241 -17 176 34T111 166Q111 207 122 251L207 592H110L126 658H420L404 592H310L224 247Q216 214 216 176Q216 118 257 86T370 53Q445 53 490 98Q530 138 548 214L642 592H541L557 658H825L809
592H716L615 186Q593 97 544 48Q479 -17 361 -17Z" />
<glyph unicode="V" glyph-name="V" horiz-adv-x="655" d="M262 592L310 100H314L608 592H525L541 658H779L763 592H692L319 -4H225L157 592H66L82 658H382L366 592H262Z" />
<glyph unicode="W" glyph-name="W" horiz-adv-x="952" d="M553 -4L536 419L292 -4H196L155 592H66L82 658H374L358 592H260L284 107H288L531 529L529 592H435L451 658H749L733 592H629L641 107H645L907 592H823L839 658H1076L1060 592H991L649 -4H553Z" />
<glyph unicode="X" glyph-name="X" horiz-adv-x="667" d="M397 592H307L388 391L576 592H495L511 658H758L742 592H664L419 337L533 66H623L607 0H319L335 66H428L341 283L134 66H217L201 0H-46L-30 66H48L310 337L200 592H110L126 658H413L397 592Z" />
<glyph unicode="Y" glyph-name="Y" horiz-adv-x="626" d="M367 334L576 592H496L512 658H738L722 592H649L378 268L328 66H430L415 0H110L125 66H225L279 281L182 592H102L118 658H400L384 592H292L367 334Z" />
<glyph unicode="Z" glyph-name="Z" horiz-adv-x="605" d="M-15 0L-2 51L518 592H342Q309 592 292 589T252 567T210 516T154 420H108L167 658H669L656 607L139 66H335Q395 66 426 95T523 245H569L508 0H-15Z" />
<glyph unicode="[" glyph-name="bracketleft" horiz-adv-x="343" d="M-6 -156L213 721H478L462 659H291L104 -94H275L259 -156H-6Z" />
<glyph unicode="\" glyph-name="backslash" horiz-adv-x="431" d="M360 -197L297 -208L138 698L201 709L360 -197Z" />
<glyph unicode="]" glyph-name="bracketright" horiz-adv-x="343" d="M376 721L157 -156H-108L-92 -94H79L266 659H95L111 721H376Z" />
<glyph unicode="^" glyph-name="asciicircum" horiz-adv-x="333" d="M93 517L262 717H307L376 517H327L268 623L146 517H93Z" />
<glyph unicode="_" glyph-name="underscore" horiz-adv-x="440" d="M-53 0L-37 66H407L391 0H-53Z" />
<glyph unicode="`" glyph-name="grave" horiz-adv-x="238" d="M247 642L263 533H217L173 615Q148 662 148 687Q148 704 160 717T189 730Q218 730 229 710T247 642Z" />
<glyph unicode="a" glyph-name="a" horiz-adv-x="541" d="M486 460L403 153Q391 110 391 89Q391 63 415 63Q447 63 485 166L529 153Q477 -9 386 -9Q353 -9 333 12T312 73Q312 84 313 94L306 97Q279 47 239 19T158 -9Q101 -9 67 35T32 146Q32 291 125 384Q207 466
288 466Q326 466 348 444T375 388L394 460H486ZM195 62Q235 62 272 112T329 223T349 327Q349 410 290 410Q245 410 206 363T149 260T130 161Q130 62 195 62Z" />
<glyph unicode="b" glyph-name="b" horiz-adv-x="499" d="M311 398Q270 398 231 354T170 251T148 145Q148 50 217 50Q263 50 299 99T352 205T369 306Q369 398 311 398ZM282 687L186 360L193 357Q220 408 260 437T341 466Q399 466 433 420T467 305Q467 174 382
83T199 -9Q125 -9 89 31T52 138Q52 188 80 288L171 615H80L99 687H282Z" />
<glyph unicode="c" glyph-name="c" horiz-adv-x="452" d="M299 466Q359 466 396 435T433 357Q433 328 417 304T372 280Q348 280 334 294T319 329Q319 365 353 395Q336 416 297 416Q247 416 207 369T148 265T129 164Q129 106 154 79T220 51Q290 51 351 154L392
130Q356 63 313 27T205 -9Q128 -9 80 41T32 171Q32 284 114 375T299 466Z" />
<glyph unicode="d" glyph-name="d" horiz-adv-x="541" d="M195 62Q254 62 302 158T350 335Q350 410 292 410Q244 410 205 363T148 260T130 161Q130 62 195 62ZM485 166L529 153Q477 -9 386 -9Q353 -9 333 13T312 74Q312 83 313 94L306 97Q279 47 239 19T158 -9Q101
-9 67 35T32 146Q32 291 125 384Q207 466 288 466Q359 466 377 396L436 615H345L364 687H547L403 153Q391 110 391 89Q391 63 415 63Q447 63 485 166Z" />
<glyph unicode="e" glyph-name="e" horiz-adv-x="454" d="M432 369Q432 300 355 249T130 185Q128 161 128 152Q128 47 220 47Q298 47 363 147L404 123Q363 59 314 25T191 -9Q121 -9 76 40T31 169Q31 283 117 374T313 466Q369 466 400 440T432 369ZM297 416Q245
416 203 360T140 230Q346 257 346 367Q346 388 334 402T297 416Z" />
<glyph unicode="f" glyph-name="f" horiz-adv-x="341" d="M-29 -167Q-68 -167 -88 -150T-108 -105Q-108 -79 -90 -59T-46 -39Q-23 -39 -11 -52T1 -83Q1 -112 -12 -123Q15 -123 30 -94T68 44L142 392H46L60 446H153Q178 564 239 628T381 692Q435 692 462 667T489
609Q489 574 469 549T421 524Q399 524 386 537T372 574Q372 613 400 637Q390 644 373 644Q322 644 297 605T252 475L246 446H376L361 392H235L167 72Q141 -54 87 -110T-29 -167Z" />
<glyph unicode="g" glyph-name="g" horiz-adv-x="496" d="M78 -103Q102 -114 142 -114Q197 -114 233 -77Q275 -34 302 86L295 89Q271 58 235 40T162 21Q103 21 68 62T32 164Q32 303 126 397Q195 466 274 466Q311 466 338 445T373 390L390 460H482L395 93Q363 -44
302 -105T139 -167Q73 -167 29 -146T-15 -76Q-15 -49 2 -26T48 -3Q73 -3 86 -17T99 -54Q99 -82 78 -103ZM197 87Q256 87 302 161T349 321Q349 360 328 385T279 410Q216 410 173 332T130 172Q130 87 197 87Z" />
<glyph unicode="h" glyph-name="h" horiz-adv-x="543" d="M389 -9Q353 -9 331 14T308 81Q308 138 341 230T374 355Q374 390 348 390Q328 390 302 370T244 307T178 184T116 0H17L181 615H90L109 687H292L167 257L173 254Q220 354 276 410T384 466Q423 466 445 436T468
360Q468 318 433 218T397 85Q397 63 415 63Q445 63 483 166L527 153Q475 -9 389 -9Z" />
<glyph unicode="i" glyph-name="i" horiz-adv-x="333" d="M310 623Q310 593 288 568T233 542Q210 542 196 557T181 597Q181 628 202 653T255 679Q280 679 295 664T310 623ZM256 360Q256 320 216 219T176 88Q176 63 198 63Q229 63 270 166L314 153Q262 -9 167 -9Q131
-9 109 14T86 81Q86 137 127 243T169 380Q169 403 153 403Q131 403 111 376T65 295L21 315Q87 466 173 466Q211 466 233 438T256 360Z" />
<glyph unicode="j" glyph-name="j" horiz-adv-x="297" d="M311 623Q311 593 289 568T234 542Q212 542 197 557T182 597Q182 628 203 653T256 679Q281 679 296 664T311 623ZM257 369Q257 338 244 289L184 62Q153 -54 100 -110T-18 -167Q-63 -167 -85 -150T-107
-105Q-107 -79 -89 -59T-45 -39Q-22 -39 -10 -52T2 -83Q2 -110 -12 -126Q22 -126 40 -94T89 52L159 317Q169 353 169 378T151 403Q117 403 66 295L22 315Q88 466 176 466Q211 466 234 439T257 369Z" />
<glyph unicode="k" glyph-name="k" horiz-adv-x="504" d="M346 93Q346 63 366 63Q396 63 432 166L476 153Q428 -9 341 -9Q305 -9 282 16T258 92Q258 105 263 137T268 180Q268 209 250 218T178 228H168L107 0H17L181 615H90L109 687H292L179 268H186Q222 268 244
288T300 365Q331 417 358 441T427 466Q459 466 476 448T494 398T476 343T432 319Q403 319 391 341T391 394Q369 391 333 330Q314 297 301 281T264 254Q354 247 354 172Q354 156 350 129T346 93Z" />
<glyph unicode="l" glyph-name="l" horiz-adv-x="291" d="M45 81Q45 122 78 245L179 615H88L107 687H290L146 153Q134 109 134 88Q134 63 156 63Q176 63 192 88T228 166L272 153Q220 -9 130 -9Q89 -9 67 14T45 81Z" />
<glyph unicode="m" glyph-name="m" horiz-adv-x="839" d="M685 -9Q649 -9 627 14T604 81Q604 138 637 230T670 355Q670 390 644 390Q599 390 538 295T422 0H325L397 271Q408 311 408 341Q408 390 378 390Q333 390 272 295T156 0H57L144 327Q152 356 153 372T151
395T136 403Q105 403 53 295L9 315Q74 464 158 464Q190 464 208 441T227 372Q227 323 204 261L211 258Q258 359 310 412T414 466Q453 466 473 440T494 368Q494 326 470 261L477 258Q524 359 576 412T680 466Q719 466 741 436T764 360Q764 318 729 218T693 85Q693
63 711 63Q741 63 779 166L823 153Q771 -9 685 -9Z" />
<glyph unicode="n" glyph-name="n" horiz-adv-x="573" d="M427 85Q427 63 445 63Q475 63 513 166L557 153Q505 -9 419 -9Q383 -9 361 14T338 81Q338 138 371 230T404 355Q404 390 378 390Q333 390 272 295T156 0H57L144 327Q152 356 153 372T151 395T136 403Q105
403 53 295L9 315Q74 464 158 464Q190 464 208 441T227 372Q227 323 204 261L211 258Q258 359 310 412T414 466Q453 466 475 436T498 360Q498 318 463 218T427 85Z" />
<glyph unicode="o" glyph-name="o" horiz-adv-x="491" d="M282 466Q363 466 411 413T459 274Q459 160 385 76T209 -9Q128 -9 80 44T32 183Q32 297 106 381T282 466ZM362 316Q362 416 282 416Q237 416 201 369T147 260T129 141Q129 41 209 41Q254 41 290 88T344
197T362 316Z" />
<glyph unicode="p" glyph-name="p" horiz-adv-x="540" d="M352 398Q312 398 273 351T211 245T189 143Q189 102 207 78T261 54Q307 54 343 102T394 207T410 308Q410 398 352 398ZM140 311Q162 392 131 392Q113 392 97 372T53 295L9 315Q45 394 81 429T161 464Q192
464 210 443T229 384Q229 374 227 360L234 357Q261 408 301 437T382 466Q439 466 473 421T508 307Q508 182 434 91T273 -1Q236 -1 207 16T164 59L125 -88H224L206 -154H-57L-39 -88H33L140 311Z" />
<glyph unicode="q" glyph-name="q" horiz-adv-x="495" d="M488 460L340 -88H416L398 -154H135L153 -88H248L299 87L292 90Q267 47 231 24T158 0Q100 0 66 46T32 162Q32 292 123 383Q206 466 289 466Q327 466 349 444T377 388L396 460H488ZM188 68Q231 68 270 115T330
221T351 327Q351 410 291 410Q244 410 205 363T148 260T130 161Q130 68 188 68Z" />
<glyph unicode="r" glyph-name="r" horiz-adv-x="443" d="M57 0L144 327Q152 356 153 372T151 395T136 403Q105 403 53 295L9 315Q74 464 158 464Q190 464 208 441T227 372Q227 323 204 261L213 258Q260 364 299 415T385 466Q413 466 431 448T450 399Q450 365
431 341T386 316Q362 316 348 331T334 373Q302 359 252 263T156 0H57Z" />
<glyph unicode="s" glyph-name="s" horiz-adv-x="422" d="M365 147Q365 74 314 33T189 -9Q122 -9 67 20T11 104Q11 132 27 152T71 173Q94 173 107 158T121 123Q121 86 97 69Q127 39 189 39Q229 39 252 58T276 115Q276 141 254 157T182 196Q147 212 128 223T91
258T73 313Q73 386 127 426T248 466Q318 466 362 438T407 366Q407 337 392 317T349 296Q328 296 314 309T300 344Q300 378 326 397Q318 406 296 412T249 419Q212 419 187 401T162 348Q162 321 184 304T257 265Q283 253 297 245T330 223T356 190T365 147Z" />
<glyph unicode="t" glyph-name="t" horiz-adv-x="373" d="M370 392H231L168 164Q155 115 155 98Q155 63 188 63Q213 63 236 92T286 174L331 161Q296 65 250 28T162 -9Q114 -9 88 14T61 81Q61 107 81 187L137 392H46L60 446H151L184 567L281 577L245 446H385L370 392Z" />
<glyph unicode="u" glyph-name="u" horiz-adv-x="568" d="M424 -9Q346 -9 346 82Q346 129 369 194L362 197Q266 -9 162 -9Q123 -9 101 20T78 96Q78 139 113 241T148 372Q148 394 133 394Q116 394 100 374T56 296L12 316Q77 466 164 466Q199 466 218 443T238 376Q238
323 205 231T172 107Q172 66 198 66Q243 66 303 160T419 460H518L436 153Q424 108 424 89Q424 63 448 63Q480 63 518 166L562 153Q510 -9 424 -9Z" />
<glyph unicode="v" glyph-name="v" horiz-adv-x="480" d="M169 465Q244 465 244 380Q244 327 207 233T169 112Q169 63 229 63Q295 63 346 151T406 340Q396 335 383 335Q359 335 345 350T330 392Q330 422 349 445T396 468Q464 468 464 371Q464 319 445 255T392
130T307 29T197 -12Q143 -12 110 17T76 95Q76 138 115 242T154 369Q154 393 138 393Q119 393 104 373T60 295L16 315Q81 465 169 465Z" />
<glyph unicode="w" glyph-name="w" horiz-adv-x="713" d="M173 465Q248 465 248 379Q248 324 208 230T167 104Q167 63 204 63Q231 63 262 98T331 226T402 460H491L433 215Q420 160 420 126Q420 63 468 63Q529 63 578 150T637 339Q625 335 616 335Q592 335 578
350T563 392Q563 422 582 445T629 468Q661 468 679 446T697 382Q697 328 679 262T630 133T548 30T440 -12Q391 -12 364 19T338 111Q338 134 341 153L334 155Q272 -12 173 -12Q129 -12 101 15T73 91Q73 138 115 240T158 371Q158 393 142 393Q123 393 108 373T64
295L20 315Q85 465 173 465Z" />
<glyph unicode="x" glyph-name="x" horiz-adv-x="530" d="M306 152Q306 58 352 58Q394 58 436 164L481 144Q428 -10 329 -10Q231 -10 234 141L228 140Q199 65 158 27T75 -12Q41 -12 23 7T4 58Q4 87 20 109T60 131Q84 131 97 114T108 64Q153 78 187 158T221 304Q221
398 175 398Q133 398 91 292L46 312Q98 466 198 466Q296 466 293 315H299Q328 390 369 429T452 468Q486 468 504 449T523 398Q523 369 507 347T467 325Q443 325 430 342T419 392Q374 378 340 298T306 152Z" />
<glyph unicode="y" glyph-name="y" horiz-adv-x="535" d="M166 465Q201 465 220 443T240 380Q240 326 211 244T182 135Q182 114 190 106T216 97Q333 97 427 460H521L434 93Q373 -167 172 -167Q32 -167 32 -81Q32 -57 50 -35T96 -12Q122 -12 135 -28T146 -69Q144
-90 129 -107Q154 -114 177 -114Q299 -114 353 111L367 170L361 173Q278 21 182 21Q137 21 113 50T88 126Q88 166 119 255T150 371Q150 393 136 393Q103 393 58 295L14 315Q79 465 166 465Z" />
<glyph unicode="z" glyph-name="z" horiz-adv-x="437" d="M115 127Q137 124 186 103T262 82Q300 82 317 100T367 186L408 168Q373 74 336 32T234 -10Q162 -10 113 70L92 104L83 102Q70 -10 18 -10Q-2 -10 -13 2T-25 30Q-25 85 55 118Q105 181 181 241T316 329Q293
332 245 353T172 374Q136 374 120 356T70 270L29 288Q64 382 101 424T200 466Q269 466 318 386L339 352L348 354Q361 466 413 466Q432 466 444 454T456 426Q456 371 376 338Q326 275 250 215T115 127Z" />
<glyph unicode="{" glyph-name="braceleft" horiz-adv-x="388" d="M302 -156Q205 -145 162 -113T118 -17Q118 24 144 100T170 198Q170 253 65 253H25L40 312H70Q156 312 191 347Q215 371 227 415T242 501T259 590T302 665Q368 731 521 721L506 662Q417 663 384
630Q360 606 348 548T321 427T272 332Q231 291 147 284L146 279Q255 264 255 185Q255 153 233 82T211 -14Q211 -48 234 -67T317 -97L302 -156Z" />
<glyph unicode="|" glyph-name="bar" horiz-adv-x="286" d="M3 -198L230 709L294 700L67 -207L3 -198Z" />
<glyph unicode="}" glyph-name="braceright" horiz-adv-x="388" d="M113 721Q210 710 253 678T297 582Q297 542 271 466T245 367Q245 312 350 312H390L375 253H345Q259 253 224 218Q200 194 188 150T173 64T156 -25T113 -100Q47 -166 -106 -156L-91 -97Q-2 -98
31 -65Q55 -41 67 17T94 138T143 233Q184 274 268 281L269 286Q160 301 160 380Q160 412 182 483T204 579Q204 613 181 632T98 662L113 721Z" />
<glyph unicode="~" glyph-name="asciitilde" horiz-adv-x="371" d="M140 310Q127 310 115 297T86 250H36Q83 377 157 377Q186 377 209 364T248 337T276 323Q289 323 301 336T330 383H380Q333 256 259 256Q230 256 207 269T168 296T140 310Z" />
</font>
</defs>
</svg>
